<svg width="24" height="24" viewBox="0 0 24 24" fill="none" xmlns="http://www.w3.org/2000/svg">
<circle cx="12" cy="12" r="12" fill="#9F9F9F"/>
<rect x="4.72021" y="5.84033" width="15.68" height="13.44" fill="white"/>
<path fill-rule="evenodd" clip-rule="evenodd" d="M5.46676 3.6001H18.5334C19.5694 3.6001 20.4001 4.4401 20.4001 5.46676V18.5334C20.4001 19.5601 19.5694 20.4001 18.5334 20.4001H5.46676C4.43076 20.4001 3.6001 19.5601 3.6001 18.5334V5.46676C3.6001 4.4401 4.43076 3.6001 5.46676 3.6001ZM5.46676 12.0001L10.1334 16.6668L18.5334 8.26676L17.2174 6.94143L10.1334 14.0254L6.78276 10.6841L5.46676 12.0001Z" fill="#9F9F9F"/>
<mask id="mask0_267_8605" style="mask-type:alpha" maskUnits="userSpaceOnUse" x="3" y="3" width="18" height="18">
<path fill-rule="evenodd" clip-rule="evenodd" d="M5.46676 3.6001H18.5334C19.5694 3.6001 20.4001 4.4401 20.4001 5.46676V18.5334C20.4001 19.5601 19.5694 20.4001 18.5334 20.4001H5.46676C4.43076 20.4001 3.6001 19.5601 3.6001 18.5334V5.46676C3.6001 4.4401 4.43076 3.6001 5.46676 3.6001ZM5.46676 12.0001L10.1334 16.6668L18.5334 8.26676L17.2174 6.94143L10.1334 14.0254L6.78276 10.6841L5.46676 12.0001Z" fill="white"/>
</mask>
<g mask="url(#mask0_267_8605)">
</g>
</svg>
