<svg width="32" height="32" viewBox="0 0 32 32" fill="none" xmlns="http://www.w3.org/2000/svg">
<circle cx="16" cy="16" r="12" fill="#FFB74D"/>
<circle cx="16" cy="16" r="14" stroke="#FFB74D" stroke-opacity="0.4" stroke-width="4" stroke-linejoin="round"/>
<path d="M14.4004 19.3578H12.973L12.5465 11.007H14.8187L14.4004 19.3578ZM12.448 21.9746C12.448 21.5699 12.5547 21.2637 12.768 21.0559C12.9813 20.8426 13.2848 20.7359 13.6785 20.7359C14.0668 20.7359 14.3648 20.8453 14.5727 21.0641C14.7805 21.2828 14.8844 21.5863 14.8844 21.9746C14.8844 22.3629 14.7777 22.6719 14.5645 22.9016C14.3566 23.1258 14.0613 23.2379 13.6785 23.2379C13.2902 23.2379 12.9867 23.1285 12.768 22.9098C12.5547 22.691 12.448 22.3793 12.448 21.9746ZM19.0434 19.3578H17.616L17.1895 11.007H19.4617L19.0434 19.3578ZM17.091 21.9746C17.091 21.5699 17.1977 21.2637 17.4109 21.0559C17.6242 20.8426 17.9277 20.7359 18.3215 20.7359C18.7098 20.7359 19.0078 20.8453 19.2156 21.0641C19.4234 21.2828 19.5273 21.5863 19.5273 21.9746C19.5273 22.3629 19.4207 22.6719 19.2074 22.9016C18.9996 23.1258 18.7043 23.2379 18.3215 23.2379C17.9332 23.2379 17.6297 23.1285 17.4109 22.9098C17.1977 22.691 17.091 22.3793 17.091 21.9746Z" fill="white"/>
</svg>
