<svg width="24" height="24" viewBox="0 0 24 24" fill="none" xmlns="http://www.w3.org/2000/svg">
<path fill-rule="evenodd" clip-rule="evenodd" d="M19 3H5C3.9 3 3 3.9 3 5V19C3 20.1 3.9 21 5 21H19C20.1 21 21 20.1 21 19V5C21 3.9 20.1 3 19 3ZM8.5 6C9.19 6 9.75 6.56 9.75 7.25C9.75 7.94 9.19 8.5 8.5 8.5C7.81 8.5 7.25 7.94 7.25 7.25C7.25 6.56 7.81 6 8.5 6ZM10 14C10.55 14 11 13.55 11 13V11.5C11 10.4 10.1 9.5 9 9.5H8C6.9 9.5 6 10.4 6 11.5V13C6 13.55 6.45 14 7 14V17C7 17.55 7.45 18 8 18H9C9.55 18 10 17.55 10 17V14ZM17.52 13.76L15.92 16.32C15.72 16.63 15.27 16.63 15.07 16.32L13.47 13.76C13.27 13.43 13.51 13 13.9 13H17.1C17.49 13 17.73 13.43 17.52 13.76ZM13.9 11H17.1C17.49 11 17.73 10.57 17.53 10.23L15.93 7.67C15.73 7.36 15.28 7.36 15.08 7.67L13.48 10.23C13.27 10.57 13.51 11 13.9 11Z" fill="#797979"/>
</svg>
