<svg width="13" height="13" viewBox="0 0 13 13" fill="none" xmlns="http://www.w3.org/2000/svg">
<path fill-rule="evenodd" clip-rule="evenodd" d="M8.625 0.125H1.54167C0.7625 0.125 0.132083 0.7625 0.132083 1.54167L0.125 11.4583C0.125 12.2375 0.755417 12.875 1.53458 12.875H11.4583C12.2375 12.875 12.875 12.2375 12.875 11.4583V4.375L8.625 0.125ZM1.54167 11.4583V1.54167H7.91667V5.08333H11.4583V11.4583H1.54167ZM3.66667 4.375C4.05625 4.375 4.375 4.05625 4.375 3.66667C4.375 3.27708 4.05625 2.95833 3.66667 2.95833C3.27708 2.95833 2.95833 3.27708 2.95833 3.66667C2.95833 4.05625 3.27708 4.375 3.66667 4.375ZM4.375 6.5C4.375 6.88958 4.05625 7.20833 3.66667 7.20833C3.27708 7.20833 2.95833 6.88958 2.95833 6.5C2.95833 6.11042 3.27708 5.79167 3.66667 5.79167C4.05625 5.79167 4.375 6.11042 4.375 6.5ZM3.66667 10.0417C4.05625 10.0417 4.375 9.72292 4.375 9.33333C4.375 8.94375 4.05625 8.625 3.66667 8.625C3.27708 8.625 2.95833 8.94375 2.95833 9.33333C2.95833 9.72292 3.27708 10.0417 3.66667 10.0417Z" fill="#4A4A4A"/>
</svg>
