<svg width="16" height="16" viewBox="0 0 16 16" fill="none" xmlns="http://www.w3.org/2000/svg">
<path fill-rule="evenodd" clip-rule="evenodd" d="M0.5 8C0.5 3.8525 3.8525 0.5 8 0.5C12.1475 0.5 15.5 3.8525 15.5 8C15.5 12.1475 12.1475 15.5 8 15.5C3.8525 15.5 0.5 12.1475 0.5 8ZM11.2175 11.225C11.51 10.9325 11.51 10.46 11.2175 10.1675L9.0575 8L11.225 5.8325C11.5175 5.54 11.5175 5.0675 11.225 4.775C10.9325 4.4825 10.46 4.4825 10.1675 4.775L8 6.9425L5.84 4.775C5.5475 4.4825 5.075 4.4825 4.7825 4.775C4.49 5.0675 4.49 5.54 4.7825 5.8325L6.9425 8L4.775 10.1675C4.4825 10.46 4.4825 10.9325 4.775 11.225C5.0675 11.5175 5.54 11.5175 5.8325 11.225L8 9.0575L10.16 11.225C10.4525 11.5175 10.925 11.5175 11.2175 11.225Z" fill="#4A4A4A" fill-opacity="0.5"/>
</svg>
