<svg width="18" height="18" viewBox="0 0 18 18" fill="none" xmlns="http://www.w3.org/2000/svg">
<mask id="mask0_955_4930" style="mask-type:alpha" maskUnits="userSpaceOnUse" x="3" y="0" width="12" height="18">
<path fill-rule="evenodd" clip-rule="evenodd" d="M3.16504 2.415C4.65754 0.9225 6.72004 0 9.00004 0C11.28 0 13.3425 0.9225 14.8275 2.4225L13.77 3.48C12.555 2.2575 10.8675 1.5 9.00004 1.5C7.13254 1.5 5.44504 2.2575 4.22254 3.4725L3.16504 2.415ZM5.28754 4.5375L6.34504 5.595C7.02754 4.92 7.96504 4.5 9.00004 4.5C10.035 4.5 10.9725 4.92 11.655 5.595L12.7125 4.5375C11.76 3.585 10.4475 3 9.00004 3C7.55254 3 6.24004 3.585 5.28754 4.5375ZM11.25 6.75C11.6625 6.75 12 7.0875 12 7.5V16.5C12 16.9125 11.6625 17.25 11.25 17.25H6.75004C6.33754 17.25 6.00004 16.9125 6.00004 16.5V7.5C6.00004 7.0875 6.33754 6.75 6.75004 6.75H11.25ZM7.50004 9.75C7.50004 10.575 8.17504 11.25 9.00004 11.25C9.82504 11.25 10.5 10.575 10.5 9.75C10.5 8.925 9.82504 8.25 9.00004 8.25C8.17504 8.25 7.50004 8.925 7.50004 9.75Z" fill="white"/>
</mask>
<g mask="url(#mask0_955_4930)">
<rect width="18" height="18" fill="#4A4A4A"/>
</g>
</svg>
