<svg width="12" height="13" viewBox="0 0 12 13" fill="none" xmlns="http://www.w3.org/2000/svg">
<path fill-rule="evenodd" clip-rule="evenodd" d="M10.6263 6.5C10.6263 6.72344 10.6134 6.93333 10.5877 7.13646L11.8792 8.20625C12.0013 8.30104 12.0334 8.47031 11.9563 8.61927L10.7226 10.8672C10.6455 11.0161 10.4849 11.0703 10.3435 11.0161L8.80788 10.3661C8.49304 10.6234 8.14607 10.8401 7.76697 11.0026L7.53566 12.7224C7.51638 12.8849 7.38788 13 7.23367 13H4.76633C4.61212 13 4.49004 12.8849 4.45791 12.7224L4.2266 11.0026C3.84751 10.8401 3.50696 10.6234 3.18569 10.3661L1.65003 11.0161C1.50867 11.0635 1.34804 11.0161 1.27094 10.8672L0.0372673 8.61927C-0.0334117 8.48385 -0.00128486 8.30104 0.114372 8.20625L1.41872 7.13646C1.38659 6.93333 1.37374 6.7099 1.37374 6.5C1.37374 6.2901 1.39944 6.06667 1.43157 5.86354L0.127222 4.79375C-0.00128485 4.69896 -0.0269863 4.52292 0.050118 4.38073L1.27736 2.13281C1.35447 1.98385 1.5151 1.92969 1.65646 1.98385L3.19212 2.63385C3.50696 2.38333 3.85393 2.1599 4.23303 1.9974L4.46434 0.277604C4.49004 0.115104 4.61212 0 4.76633 0H7.23367C7.38788 0 7.51638 0.115104 7.54209 0.277604L7.7734 1.9974C8.1525 2.1599 8.49304 2.37656 8.81431 2.63385L10.35 1.98385C10.4913 1.93646 10.652 1.98385 10.7291 2.13281L11.9627 4.38073C12.0334 4.51615 12.0013 4.69896 11.8856 4.79375L10.5813 5.86354C10.6134 6.06667 10.6263 6.28333 10.6263 6.5ZM3.68687 6.5C3.68687 7.84062 4.72778 8.9375 6 8.9375C7.27222 8.9375 8.31313 7.84062 8.31313 6.5C8.31313 5.15938 7.27222 4.0625 6 4.0625C4.72778 4.0625 3.68687 5.15938 3.68687 6.5Z" fill="#4A4A4A"/>
</svg>
