<svg width="24" height="24" viewBox="0 0 24 24" fill="none" xmlns="http://www.w3.org/2000/svg">
<path fill-rule="evenodd" clip-rule="evenodd" d="M9 9H15C15.55 9 16 9.45 16 10V22C16 22.55 15.55 23 15 23H9C8.45 23 8 22.55 8 22V10C8 9.45 8.45 9 9 9ZM10 21H14V11H10V21Z" fill="white"/>
<circle cx="12" cy="13" r="1" fill="white"/>
<path fill-rule="evenodd" clip-rule="evenodd" d="M4.22021 3.22C6.21021 1.23 8.96022 0 12.0002 0C15.0402 0 17.7902 1.23 19.7702 3.23L18.3602 4.64C16.7402 3.01 14.4902 2 12.0002 2C9.51021 2 7.26021 3.01 5.63021 4.63L4.22021 3.22ZM8.46021 7.46L7.05021 6.05C8.32021 4.78 10.0702 4 12.0002 4C13.9302 4 15.6802 4.78 16.9502 6.05L15.5402 7.46C14.6302 6.56 13.3802 6 12.0002 6C10.6202 6 9.37021 6.56 8.46021 7.46Z" fill="white"/>
</svg>
