<svg width="30" height="30" viewBox="0 0 30 30" fill="none" xmlns="http://www.w3.org/2000/svg">
<circle cx="15" cy="15" r="15" fill="#FFB74D"/>
<path d="M13.0005 18.4473H11.2163L10.6831 8.00879H13.5234L13.0005 18.4473ZM10.5601 21.7183C10.5601 21.2124 10.6934 20.8296 10.96 20.5698C11.2266 20.3032 11.606 20.1699 12.0981 20.1699C12.5835 20.1699 12.9561 20.3066 13.2158 20.5801C13.4756 20.8535 13.6055 21.2329 13.6055 21.7183C13.6055 22.2036 13.4722 22.5898 13.2056 22.877C12.9458 23.1572 12.5767 23.2974 12.0981 23.2974C11.6128 23.2974 11.2334 23.1606 10.96 22.8872C10.6934 22.6138 10.5601 22.2241 10.5601 21.7183ZM18.8042 18.4473H17.02L16.4868 8.00879H19.3271L18.8042 18.4473ZM16.3638 21.7183C16.3638 21.2124 16.4971 20.8296 16.7637 20.5698C17.0303 20.3032 17.4097 20.1699 17.9019 20.1699C18.3872 20.1699 18.7598 20.3066 19.0195 20.5801C19.2793 20.8535 19.4092 21.2329 19.4092 21.7183C19.4092 22.2036 19.2759 22.5898 19.0093 22.877C18.7495 23.1572 18.3804 23.2974 17.9019 23.2974C17.4165 23.2974 17.0371 23.1606 16.7637 22.8872C16.4971 22.6138 16.3638 22.2241 16.3638 21.7183Z" fill="white"/>
</svg>
