<svg width="31" height="30" viewBox="0 0 31 30" fill="none" xmlns="http://www.w3.org/2000/svg">
<circle cx="15.4368" cy="15" r="15" fill="#9F9F9F"/>
<rect x="6.33667" y="7.30005" width="19.6" height="16.8" fill="white"/>
<path fill-rule="evenodd" clip-rule="evenodd" d="M7.2701 4.5H23.6034C24.8984 4.5 25.9368 5.55 25.9368 6.83333V23.1667C25.9368 24.45 24.8984 25.5 23.6034 25.5H7.2701C5.9751 25.5 4.93677 24.45 4.93677 23.1667V6.83333C4.93677 5.55 5.9751 4.5 7.2701 4.5ZM7.27003 14.9999L13.1034 20.8333L23.6034 10.3333L21.9584 8.67661L13.1034 17.5316L8.91503 13.3549L7.27003 14.9999Z" fill="#9F9F9F"/>
<mask id="mask0_222_12774" style="mask-type:alpha" maskUnits="userSpaceOnUse" x="4" y="4" width="22" height="22">
<path fill-rule="evenodd" clip-rule="evenodd" d="M7.2701 4.5H23.6034C24.8984 4.5 25.9368 5.55 25.9368 6.83333V23.1667C25.9368 24.45 24.8984 25.5 23.6034 25.5H7.2701C5.9751 25.5 4.93677 24.45 4.93677 23.1667V6.83333C4.93677 5.55 5.9751 4.5 7.2701 4.5ZM7.27003 14.9999L13.1034 20.8333L23.6034 10.3333L21.9584 8.67661L13.1034 17.5316L8.91503 13.3549L7.27003 14.9999Z" fill="white"/>
</mask>
<g mask="url(#mask0_222_12774)">
</g>
</svg>
