<svg width="30" height="30" viewBox="0 0 30 30" fill="none" xmlns="http://www.w3.org/2000/svg">
<circle cx="15" cy="15" r="15" fill="#F44336"/>
<path d="M9.59863 18.4473H7.81445L7.28125 8.00879H10.1216L9.59863 18.4473ZM7.1582 21.7183C7.1582 21.2124 7.2915 20.8296 7.55811 20.5698C7.82471 20.3032 8.2041 20.1699 8.69629 20.1699C9.18164 20.1699 9.5542 20.3066 9.81396 20.5801C10.0737 20.8535 10.2036 21.2329 10.2036 21.7183C10.2036 22.2036 10.0703 22.5898 9.80371 22.877C9.54395 23.1572 9.1748 23.2974 8.69629 23.2974C8.21094 23.2974 7.83154 23.1606 7.55811 22.8872C7.2915 22.6138 7.1582 22.2241 7.1582 21.7183ZM15.4023 18.4473H13.6182L13.085 8.00879H15.9253L15.4023 18.4473ZM12.9619 21.7183C12.9619 21.2124 13.0952 20.8296 13.3618 20.5698C13.6284 20.3032 14.0078 20.1699 14.5 20.1699C14.9854 20.1699 15.3579 20.3066 15.6177 20.5801C15.8774 20.8535 16.0073 21.2329 16.0073 21.7183C16.0073 22.2036 15.874 22.5898 15.6074 22.877C15.3477 23.1572 14.9785 23.2974 14.5 23.2974C14.0146 23.2974 13.6353 23.1606 13.3618 22.8872C13.0952 22.6138 12.9619 22.2241 12.9619 21.7183ZM21.2061 18.4473H19.4219L18.8887 8.00879H21.729L21.2061 18.4473ZM18.7656 21.7183C18.7656 21.2124 18.8989 20.8296 19.1655 20.5698C19.4321 20.3032 19.8115 20.1699 20.3037 20.1699C20.7891 20.1699 21.1616 20.3066 21.4214 20.5801C21.6812 20.8535 21.811 21.2329 21.811 21.7183C21.811 22.2036 21.6777 22.5898 21.4111 22.877C21.1514 23.1572 20.7822 23.2974 20.3037 23.2974C19.8184 23.2974 19.439 23.1606 19.1655 22.8872C18.8989 22.6138 18.7656 22.2241 18.7656 21.7183Z" fill="white"/>
</svg>
