<svg width="30" height="30" viewBox="0 0 30 30" fill="none" xmlns="http://www.w3.org/2000/svg">
<circle cx="15" cy="15" r="15" fill="#4A90E2"/>
<path d="M15.9023 18.4473H14.1182L13.585 8.00879H16.4253L15.9023 18.4473ZM13.4619 21.7183C13.4619 21.2124 13.5952 20.8296 13.8618 20.5698C14.1284 20.3032 14.5078 20.1699 15 20.1699C15.4854 20.1699 15.8579 20.3066 16.1177 20.5801C16.3774 20.8535 16.5073 21.2329 16.5073 21.7183C16.5073 22.2036 16.374 22.5898 16.1074 22.877C15.8477 23.1572 15.4785 23.2974 15 23.2974C14.5146 23.2974 14.1353 23.1606 13.8618 22.8872C13.5952 22.6138 13.4619 22.2241 13.4619 21.7183Z" fill="white"/>
</svg>
