<svg width="265" height="395" viewBox="0 0 265 395" fill="none" xmlns="http://www.w3.org/2000/svg">
<g id="Group 4">
<g id="Group 6" clip-path="url(#clip0_2_8383)">
<g id="Group 14">
<g id="Group 3">
<mask id="mask0_2_8383" style="mask-type:alpha" maskUnits="userSpaceOnUse" x="65" y="8" width="32" height="160">
<path id="Clip 2" fill-rule="evenodd" clip-rule="evenodd" d="M65.2493 8.89551H96.0182V167.2H65.2493V8.89551Z" fill="white"/>
</mask>
<g mask="url(#mask0_2_8383)">
<path id="Fill 1" fill-rule="evenodd" clip-rule="evenodd" d="M95.077 40.9929H89.0836C92.5246 38.438 94.7627 34.383 94.7627 29.808C94.7627 25.2238 92.5133 21.1575 89.0592 18.6064H95.077V40.9929ZM66.1904 124.004H95.077V51.2424H66.1904V124.004ZM95.077 156.64H89.1363C92.5471 154.083 94.7627 150.045 94.7627 145.492C94.7627 140.886 92.4907 136.803 89.0083 134.253H95.077V156.64ZM95.077 161.144C95.077 163.969 92.7561 166.269 89.9006 166.269H71.3669C68.869 166.269 66.7796 164.508 66.2959 162.175C66.2262 161.843 66.1904 161.496 66.1904 161.144V157.572H73.5392C75.6267 158.777 78.0455 159.482 80.6337 159.482C83.2201 159.482 85.6408 158.777 87.7283 157.572H95.077V161.144ZM66.1904 134.253H72.2573C68.7749 136.803 66.5029 140.886 66.5029 145.492C66.5029 150.045 68.7203 154.083 72.1311 156.64H66.1904V134.253ZM84.9104 132.164C84.8709 132.151 84.8333 132.138 84.7919 132.125C84.4135 132.011 84.0352 131.915 83.6493 131.833C83.4987 131.801 83.3481 131.775 83.1956 131.747C82.8417 131.683 82.4897 131.624 82.134 131.587C81.9777 131.57 81.8177 131.568 81.6596 131.557C80.9782 131.508 80.2987 131.508 79.6192 131.557C79.4554 131.568 79.2916 131.568 79.1297 131.587C78.7777 131.624 78.4295 131.683 78.0813 131.745C77.9232 131.775 77.7669 131.801 77.6107 131.834C77.2304 131.916 76.8559 132.011 76.4831 132.123C76.4342 132.138 76.3871 132.155 76.3401 132.17C75.397 132.464 74.4766 132.83 73.6107 133.322H66.1904V124.936H95.077V133.322H87.6568C86.7871 132.826 85.8591 132.459 84.9104 132.164ZM87.4008 156.64L87.2916 156.703C83.2389 159.057 78.0267 159.057 73.9759 156.703L73.8648 156.64H73.7989C69.9966 154.346 67.4441 150.213 67.4441 145.492C67.4441 139.65 71.3424 134.693 76.6959 133.033C76.7053 133.029 76.7147 133.027 76.7222 133.023C77.078 132.913 77.4431 132.824 77.8121 132.744C77.9457 132.718 78.0813 132.692 78.2168 132.666C78.5519 132.604 78.8907 132.548 79.2333 132.511C79.365 132.5 79.4949 132.498 79.6248 132.489C79.958 132.462 80.293 132.436 80.6337 132.436C80.9744 132.436 81.3114 132.462 81.6446 132.489C81.7744 132.498 81.9024 132.5 82.0304 132.511C82.3768 132.548 82.7156 132.604 83.0526 132.666C83.1862 132.692 83.3199 132.718 83.4535 132.744C83.8224 132.824 84.1895 132.913 84.5453 133.023C84.5528 133.025 84.5584 133.029 84.566 133.031C89.9231 134.689 93.8215 139.648 93.8215 145.492C93.8215 150.213 91.2709 154.346 87.4667 156.64H87.4008ZM66.1904 18.6064H72.2064C68.7542 21.1575 66.5029 25.2238 66.5029 29.808C66.5029 34.383 68.7429 38.438 72.182 40.9929H66.1904V18.6064ZM87.4008 40.9929L87.2916 41.0563C83.2389 43.4118 78.0304 43.4137 73.9759 41.0563L73.8648 40.9929H73.8629C70.0248 38.7064 67.4441 34.5563 67.4441 29.808C67.4441 24.961 70.1321 20.7326 74.102 18.4796C78.0944 16.2192 83.1712 16.2192 87.1636 18.4796C91.1354 20.7326 93.8215 24.961 93.8215 29.808C93.8215 34.5563 91.2408 38.7064 87.4046 40.9929H87.4008ZM80.6337 43.7976C83.1937 43.7976 85.59 43.108 87.6643 41.9247H95.077V50.3106H66.1904V41.9247H73.6013C75.6756 43.108 78.0719 43.7976 80.6337 43.7976ZM66.1904 14.952C66.1904 14.5979 66.2262 14.2532 66.2959 13.9214C66.7796 11.5883 68.869 9.82727 71.3669 9.82727H89.9006C92.7561 9.82727 95.077 12.1269 95.077 14.952V17.6746H87.6568C87.621 17.6541 87.5834 17.6411 87.5476 17.6224C86.5255 17.0503 85.4224 16.6105 84.2629 16.3049C84.2591 16.303 84.2535 16.303 84.2497 16.3012C83.094 15.9974 81.8855 15.8204 80.6337 15.8204C78.1189 15.8204 75.7622 16.4801 73.7142 17.6243C73.6803 17.6429 73.6446 17.656 73.6107 17.6746H66.1904V14.952ZM89.9006 8.89551H71.3669C67.9937 8.89551 65.2493 11.6125 65.2493 14.952V18.6064V40.9929V51.2424V124.004V134.253V156.64V161.144C65.2493 164.483 67.9937 167.2 71.3669 167.2H89.9006C93.2737 167.2 96.0182 164.483 96.0182 161.144V156.64V134.253V124.004V51.2424V40.9929V18.6064V14.952C96.0182 11.6125 93.2737 8.89551 89.9006 8.89551Z" fill="#9E9E9E"/>
</g>
</g>
<path id="Fill 4" fill-rule="evenodd" clip-rule="evenodd" d="M80.1608 28.7673L77.1793 23.6362C78.128 23.1122 79.1295 22.8289 80.1608 22.7935V28.7673ZM80.1608 22.3632C79.0522 22.3986 77.9787 22.6996 76.9632 23.2644L76.1796 21.9153L75.8 22.1384L76.5766 23.4769L80.6 30.3998V22.5704V22.349V20.7998H80.1608V22.3632Z" fill="#4A4A4A"/>
<mask id="mask1_2_8383" style="mask-type:alpha" maskUnits="userSpaceOnUse" x="63" y="0" width="33" height="168">
<path id="Clip 7" fill-rule="evenodd" clip-rule="evenodd" d="M63 167.2H95.8V0H63V167.2Z" fill="white"/>
</mask>
<g mask="url(#mask1_2_8383)">
<path id="Fill 6" fill-rule="evenodd" clip-rule="evenodd" d="M80.4 9.59961H80.8V5.59961H80.4V9.59961Z" fill="#4A4A4A"/>
<path id="Fill 8" fill-rule="evenodd" clip-rule="evenodd" d="M80.4 17.5996H80.8V13.5996H80.4V17.5996Z" fill="#4A4A4A"/>
<path id="Fill 9" fill-rule="evenodd" clip-rule="evenodd" d="M80.4 1.6H80.8V0H80.4V1.6Z" fill="#4A4A4A"/>
<path id="Fill 10" fill-rule="evenodd" clip-rule="evenodd" d="M65.4 4.23872L67.3417 7.2L67.8 6.96128L65.8584 4L65.4 4.23872Z" fill="#4A4A4A"/>
<path id="Fill 11" fill-rule="evenodd" clip-rule="evenodd" d="M72.6 16.2387L74.5416 19.2L75 18.9613L73.0583 16L72.6 16.2387Z" fill="#4A4A4A"/>
<path id="Fill 12" fill-rule="evenodd" clip-rule="evenodd" d="M68.6 10.6391L70.5416 13.6004L71 13.3617L69.0583 10.4004L68.6 10.6391Z" fill="#4A4A4A"/>
<path id="Fill 13" fill-rule="evenodd" clip-rule="evenodd" d="M63.2232 0.2104L64.0312 1.5912L64.3768 1.3896L63.5688 0.0088L63.2232 0.2104Z" fill="#4A4A4A"/>
</g>
</g>
<path id="Contact angle" d="M25.3711 3.80078C24.7435 3.80078 24.2474 4.01042 23.8828 4.42969C23.5208 4.84635 23.3398 5.41797 23.3398 6.14453C23.3398 6.89193 23.5143 7.47005 23.8633 7.87891C24.2148 8.28516 24.7148 8.48828 25.3633 8.48828C25.7617 8.48828 26.2161 8.41667 26.7266 8.27344V8.85547C26.3307 9.00391 25.8424 9.07812 25.2617 9.07812C24.4206 9.07812 23.7708 8.82292 23.3125 8.3125C22.8568 7.80208 22.6289 7.07682 22.6289 6.13672C22.6289 5.54818 22.7383 5.03255 22.957 4.58984C23.1784 4.14714 23.4961 3.80599 23.9102 3.56641C24.3268 3.32682 24.8164 3.20703 25.3789 3.20703C25.9779 3.20703 26.5013 3.31641 26.9492 3.53516L26.668 4.10547C26.2357 3.90234 25.8034 3.80078 25.3711 3.80078ZM31.5703 6.85547C31.5703 7.55339 31.3945 8.09896 31.043 8.49219C30.6914 8.88281 30.2057 9.07812 29.5859 9.07812C29.2031 9.07812 28.8633 8.98828 28.5664 8.80859C28.2695 8.62891 28.0404 8.37109 27.8789 8.03516C27.7174 7.69922 27.6367 7.30599 27.6367 6.85547C27.6367 6.15755 27.8112 5.61458 28.1602 5.22656C28.5091 4.83594 28.9935 4.64062 29.6133 4.64062C30.2122 4.64062 30.6875 4.83984 31.0391 5.23828C31.3932 5.63672 31.5703 6.17578 31.5703 6.85547ZM28.3086 6.85547C28.3086 7.40234 28.418 7.81901 28.6367 8.10547C28.8555 8.39193 29.1771 8.53516 29.6016 8.53516C30.026 8.53516 30.3477 8.39323 30.5664 8.10938C30.7878 7.82292 30.8984 7.40495 30.8984 6.85547C30.8984 6.3112 30.7878 5.89844 30.5664 5.61719C30.3477 5.33333 30.0234 5.19141 29.5938 5.19141C29.1693 5.19141 28.849 5.33073 28.6328 5.60938C28.4167 5.88802 28.3086 6.30339 28.3086 6.85547ZM35.6406 9V6.23047C35.6406 5.88151 35.5612 5.62109 35.4023 5.44922C35.2435 5.27734 34.9948 5.19141 34.6562 5.19141C34.2083 5.19141 33.8802 5.3125 33.6719 5.55469C33.4635 5.79688 33.3594 6.19661 33.3594 6.75391V9H32.7109V4.71875H33.2383L33.3438 5.30469H33.375C33.5078 5.09375 33.694 4.93099 33.9336 4.81641C34.1732 4.69922 34.4401 4.64062 34.7344 4.64062C35.25 4.64062 35.638 4.76562 35.8984 5.01562C36.1589 5.26302 36.2891 5.66016 36.2891 6.20703V9H35.6406ZM39.0078 8.54297C39.1224 8.54297 39.2331 8.53516 39.3398 8.51953C39.4466 8.5013 39.5312 8.48307 39.5938 8.46484V8.96094C39.5234 8.99479 39.4193 9.02214 39.2812 9.04297C39.1458 9.06641 39.0234 9.07812 38.9141 9.07812C38.0859 9.07812 37.6719 8.64193 37.6719 7.76953V5.22266H37.0586V4.91016L37.6719 4.64062L37.9453 3.72656H38.3203V4.71875H39.5625V5.22266H38.3203V7.74219C38.3203 8 38.3815 8.19792 38.5039 8.33594C38.6263 8.47396 38.7943 8.54297 39.0078 8.54297ZM43.0859 9L42.957 8.39062H42.9258C42.7122 8.65885 42.4987 8.84115 42.2852 8.9375C42.0742 9.03125 41.8099 9.07812 41.4922 9.07812C41.0677 9.07812 40.7344 8.96875 40.4922 8.75C40.2526 8.53125 40.1328 8.22005 40.1328 7.81641C40.1328 6.95182 40.8242 6.4987 42.207 6.45703L42.9336 6.43359V6.16797C42.9336 5.83203 42.8607 5.58464 42.7148 5.42578C42.5716 5.26432 42.3411 5.18359 42.0234 5.18359C41.6667 5.18359 41.263 5.29297 40.8125 5.51172L40.6133 5.01562C40.8242 4.90104 41.0547 4.8112 41.3047 4.74609C41.5573 4.68099 41.8099 4.64844 42.0625 4.64844C42.5729 4.64844 42.9505 4.76172 43.1953 4.98828C43.4427 5.21484 43.5664 5.57812 43.5664 6.07812V9H43.0859ZM41.6211 8.54297C42.0247 8.54297 42.3411 8.43229 42.5703 8.21094C42.8021 7.98958 42.918 7.67969 42.918 7.28125V6.89453L42.2695 6.92188C41.7539 6.9401 41.3815 7.02083 41.1523 7.16406C40.9258 7.30469 40.8125 7.52474 40.8125 7.82422C40.8125 8.05859 40.8828 8.23698 41.0234 8.35938C41.1667 8.48177 41.3659 8.54297 41.6211 8.54297ZM46.6172 9.07812C45.9974 9.07812 45.5169 8.88802 45.1758 8.50781C44.8372 8.125 44.668 7.58464 44.668 6.88672C44.668 6.17057 44.8398 5.61719 45.1836 5.22656C45.5299 4.83594 46.0221 4.64062 46.6602 4.64062C46.8659 4.64062 47.0716 4.66276 47.2773 4.70703C47.4831 4.7513 47.6445 4.80339 47.7617 4.86328L47.5625 5.41406C47.4193 5.35677 47.263 5.3099 47.0938 5.27344C46.9245 5.23438 46.7747 5.21484 46.6445 5.21484C45.7747 5.21484 45.3398 5.76953 45.3398 6.87891C45.3398 7.40495 45.4453 7.80859 45.6562 8.08984C45.8698 8.37109 46.1849 8.51172 46.6016 8.51172C46.9583 8.51172 47.3242 8.4349 47.6992 8.28125V8.85547C47.4128 9.00391 47.0521 9.07812 46.6172 9.07812ZM50.1016 8.54297C50.2161 8.54297 50.3268 8.53516 50.4336 8.51953C50.5404 8.5013 50.625 8.48307 50.6875 8.46484V8.96094C50.6172 8.99479 50.513 9.02214 50.375 9.04297C50.2396 9.06641 50.1172 9.07812 50.0078 9.07812C49.1797 9.07812 48.7656 8.64193 48.7656 7.76953V5.22266H48.1523V4.91016L48.7656 4.64062L49.0391 3.72656H49.4141V4.71875H50.6562V5.22266H49.4141V7.74219C49.4141 8 49.4753 8.19792 49.5977 8.33594C49.7201 8.47396 49.888 8.54297 50.1016 8.54297ZM29.6875 20L29.5586 19.3906H29.5273C29.3138 19.6589 29.1003 19.8411 28.8867 19.9375C28.6758 20.0312 28.4115 20.0781 28.0938 20.0781C27.6693 20.0781 27.3359 19.9688 27.0938 19.75C26.8542 19.5312 26.7344 19.2201 26.7344 18.8164C26.7344 17.9518 27.4258 17.4987 28.8086 17.457L29.5352 17.4336V17.168C29.5352 16.832 29.4622 16.5846 29.3164 16.4258C29.1732 16.2643 28.9427 16.1836 28.625 16.1836C28.2682 16.1836 27.8646 16.293 27.4141 16.5117L27.2148 16.0156C27.4258 15.901 27.6562 15.8112 27.9062 15.7461C28.1589 15.681 28.4115 15.6484 28.6641 15.6484C29.1745 15.6484 29.5521 15.7617 29.7969 15.9883C30.0443 16.2148 30.168 16.5781 30.168 17.0781V20H29.6875ZM28.2227 19.543C28.6263 19.543 28.9427 19.4323 29.1719 19.2109C29.4036 18.9896 29.5195 18.6797 29.5195 18.2812V17.8945L28.8711 17.9219C28.3555 17.9401 27.9831 18.0208 27.7539 18.1641C27.5273 18.3047 27.4141 18.5247 27.4141 18.8242C27.4141 19.0586 27.4844 19.237 27.625 19.3594C27.7682 19.4818 27.9674 19.543 28.2227 19.543ZM34.4375 20V17.2305C34.4375 16.8815 34.3581 16.6211 34.1992 16.4492C34.0404 16.2773 33.7917 16.1914 33.4531 16.1914C33.0052 16.1914 32.6771 16.3125 32.4688 16.5547C32.2604 16.7969 32.1562 17.1966 32.1562 17.7539V20H31.5078V15.7188H32.0352L32.1406 16.3047H32.1719C32.3047 16.0938 32.4909 15.931 32.7305 15.8164C32.9701 15.6992 33.237 15.6406 33.5312 15.6406C34.0469 15.6406 34.4349 15.7656 34.6953 16.0156C34.9557 16.263 35.0859 16.6602 35.0859 17.207V20H34.4375ZM39.9258 15.7188V16.1289L39.1328 16.2227C39.2057 16.3138 39.2708 16.4336 39.3281 16.582C39.3854 16.7279 39.4141 16.8932 39.4141 17.0781C39.4141 17.4974 39.2708 17.832 38.9844 18.082C38.6979 18.332 38.3047 18.457 37.8047 18.457C37.6771 18.457 37.5573 18.4466 37.4453 18.4258C37.1693 18.5716 37.0312 18.7552 37.0312 18.9766C37.0312 19.0938 37.0794 19.181 37.1758 19.2383C37.2721 19.293 37.4375 19.3203 37.6719 19.3203H38.4297C38.8932 19.3203 39.2487 19.418 39.4961 19.6133C39.7461 19.8086 39.8711 20.0924 39.8711 20.4648C39.8711 20.9388 39.681 21.2995 39.3008 21.5469C38.9206 21.7969 38.3659 21.9219 37.6367 21.9219C37.0768 21.9219 36.6445 21.8177 36.3398 21.6094C36.0378 21.401 35.8867 21.1068 35.8867 20.7266C35.8867 20.4661 35.9701 20.2409 36.1367 20.0508C36.3034 19.8607 36.5378 19.7318 36.8398 19.6641C36.7305 19.6146 36.638 19.5378 36.5625 19.4336C36.4896 19.3294 36.4531 19.2083 36.4531 19.0703C36.4531 18.9141 36.4948 18.7773 36.5781 18.6602C36.6615 18.543 36.793 18.4297 36.9727 18.3203C36.7513 18.2292 36.5703 18.0742 36.4297 17.8555C36.2917 17.6367 36.2227 17.3867 36.2227 17.1055C36.2227 16.6367 36.3633 16.276 36.6445 16.0234C36.9258 15.7682 37.3242 15.6406 37.8398 15.6406C38.0638 15.6406 38.2656 15.6667 38.4453 15.7188H39.9258ZM36.5117 20.7188C36.5117 20.9505 36.6094 21.1263 36.8047 21.2461C37 21.3659 37.2799 21.4258 37.6445 21.4258C38.1888 21.4258 38.5911 21.3438 38.8516 21.1797C39.1146 21.0182 39.2461 20.7982 39.2461 20.5195C39.2461 20.2878 39.1745 20.1263 39.0312 20.0352C38.888 19.9466 38.6185 19.9023 38.2227 19.9023H37.4453C37.151 19.9023 36.9219 19.9727 36.7578 20.1133C36.5938 20.2539 36.5117 20.4557 36.5117 20.7188ZM36.8633 17.0898C36.8633 17.3893 36.9479 17.6159 37.1172 17.7695C37.2865 17.9232 37.5221 18 37.8242 18C38.457 18 38.7734 17.6927 38.7734 17.0781C38.7734 16.4349 38.4531 16.1133 37.8125 16.1133C37.5078 16.1133 37.2734 16.1953 37.1094 16.3594C36.9453 16.5234 36.8633 16.7669 36.8633 17.0898ZM41.4531 20H40.8047V13.9219H41.4531V20ZM44.6367 20.0781C44.0039 20.0781 43.5039 19.8854 43.1367 19.5C42.7721 19.1146 42.5898 18.5794 42.5898 17.8945C42.5898 17.2044 42.7591 16.6562 43.0977 16.25C43.4388 15.8438 43.8958 15.6406 44.4688 15.6406C45.0052 15.6406 45.4297 15.8177 45.7422 16.1719C46.0547 16.5234 46.2109 16.9883 46.2109 17.5664V17.9766H43.2617C43.2747 18.4792 43.401 18.8607 43.6406 19.1211C43.8828 19.3815 44.2227 19.5117 44.6602 19.5117C45.1211 19.5117 45.5768 19.4154 46.0273 19.2227V19.8008C45.7982 19.8997 45.5807 19.9701 45.375 20.0117C45.1719 20.056 44.9258 20.0781 44.6367 20.0781ZM44.4609 16.1836C44.1172 16.1836 43.8424 16.2956 43.6367 16.5195C43.4336 16.7435 43.3138 17.0534 43.2773 17.4492H45.5156C45.5156 17.0404 45.4245 16.7279 45.2422 16.5117C45.0599 16.293 44.7995 16.1836 44.4609 16.1836Z" fill="#9B9B9B"/>
<g id="Bearing Section A">
<path d="M40.8625 178.147H42.9953C43.9672 178.147 44.6719 178.286 45.1094 178.564C45.55 178.839 45.7703 179.278 45.7703 179.881C45.7703 180.291 45.6734 180.627 45.4797 180.889C45.2891 181.152 45.0344 181.309 44.7156 181.362V181.409C45.15 181.506 45.4625 181.687 45.6531 181.953C45.8469 182.219 45.9438 182.572 45.9438 183.012C45.9438 183.637 45.7172 184.125 45.2641 184.475C44.8141 184.825 44.2016 185 43.4266 185H40.8625V178.147ZM42.3156 180.861H43.1594C43.5531 180.861 43.8375 180.8 44.0125 180.678C44.1906 180.556 44.2797 180.355 44.2797 180.073C44.2797 179.811 44.1828 179.623 43.9891 179.511C43.7984 179.395 43.4953 179.337 43.0797 179.337H42.3156V180.861ZM42.3156 182.014V183.8H43.2625C43.6625 183.8 43.9578 183.723 44.1484 183.57C44.3391 183.417 44.4344 183.183 44.4344 182.867C44.4344 182.298 44.0281 182.014 43.2156 182.014H42.3156ZM49.3703 180.678C49.0672 180.678 48.8297 180.775 48.6578 180.969C48.4859 181.159 48.3875 181.431 48.3625 181.784H50.3688C50.3625 181.431 50.2703 181.159 50.0922 180.969C49.9141 180.775 49.6734 180.678 49.3703 180.678ZM49.5719 185.094C48.7281 185.094 48.0688 184.861 47.5938 184.395C47.1188 183.93 46.8813 183.27 46.8813 182.417C46.8813 181.539 47.1 180.861 47.5375 180.383C47.9781 179.902 48.5859 179.661 49.3609 179.661C50.1016 179.661 50.6781 179.872 51.0906 180.294C51.5031 180.716 51.7094 181.298 51.7094 182.042V182.736H48.3297C48.3453 183.142 48.4656 183.459 48.6906 183.687C48.9156 183.916 49.2313 184.03 49.6375 184.03C49.9531 184.03 50.2516 183.997 50.5328 183.931C50.8141 183.866 51.1078 183.761 51.4141 183.617V184.723C51.1641 184.848 50.8969 184.941 50.6125 185C50.3281 185.063 49.9813 185.094 49.5719 185.094ZM56.2 185L55.9234 184.287H55.8859C55.6453 184.591 55.3969 184.802 55.1406 184.92C54.8875 185.036 54.5563 185.094 54.1469 185.094C53.6438 185.094 53.2469 184.95 52.9563 184.662C52.6688 184.375 52.525 183.966 52.525 183.434C52.525 182.878 52.7188 182.469 53.1063 182.206C53.4969 181.941 54.0844 181.794 54.8688 181.766L55.7781 181.737V181.508C55.7781 180.977 55.5063 180.711 54.9625 180.711C54.5438 180.711 54.0516 180.837 53.4859 181.091L53.0125 180.125C53.6156 179.809 54.2844 179.652 55.0188 179.652C55.7219 179.652 56.2609 179.805 56.6359 180.111C57.0109 180.417 57.1984 180.883 57.1984 181.508V185H56.2ZM55.7781 182.572L55.225 182.591C54.8094 182.603 54.5 182.678 54.2969 182.816C54.0938 182.953 53.9922 183.162 53.9922 183.444C53.9922 183.847 54.2234 184.048 54.6859 184.048C55.0172 184.048 55.2813 183.953 55.4781 183.762C55.6781 183.572 55.7781 183.319 55.7781 183.003V182.572ZM61.6 179.661C61.7938 179.661 61.9547 179.675 62.0828 179.703L61.975 181.044C61.8594 181.012 61.7188 180.997 61.5531 180.997C61.0969 180.997 60.7406 181.114 60.4844 181.348C60.2313 181.583 60.1047 181.911 60.1047 182.333V185H58.675V179.759H59.7578L59.9688 180.641H60.0391C60.2016 180.347 60.4203 180.111 60.6953 179.933C60.9734 179.752 61.275 179.661 61.6 179.661ZM62.9734 178.405C62.9734 177.939 63.2328 177.706 63.7516 177.706C64.2703 177.706 64.5297 177.939 64.5297 178.405C64.5297 178.627 64.4641 178.8 64.3328 178.925C64.2047 179.047 64.0109 179.108 63.7516 179.108C63.2328 179.108 62.9734 178.873 62.9734 178.405ZM64.4641 185H63.0344V179.759H64.4641V185ZM70.8063 185H69.3766V181.939C69.3766 181.561 69.3094 181.278 69.175 181.091C69.0406 180.9 68.8266 180.805 68.5328 180.805C68.1328 180.805 67.8438 180.939 67.6656 181.208C67.4875 181.473 67.3984 181.916 67.3984 182.534V185H65.9688V179.759H67.0609L67.2531 180.43H67.3328C67.4922 180.177 67.7109 179.986 67.9891 179.858C68.2703 179.727 68.5891 179.661 68.9453 179.661C69.5547 179.661 70.0172 179.827 70.3328 180.158C70.6484 180.486 70.8063 180.961 70.8063 181.583V185ZM76.8391 179.759V180.486L76.0188 180.697C76.1688 180.931 76.2438 181.194 76.2438 181.484C76.2438 182.047 76.0469 182.486 75.6531 182.802C75.2625 183.114 74.7188 183.27 74.0219 183.27L73.7641 183.256L73.5531 183.233C73.4063 183.345 73.3328 183.47 73.3328 183.608C73.3328 183.814 73.5953 183.917 74.1203 183.917H75.0109C75.5859 183.917 76.0234 184.041 76.3234 184.287C76.6266 184.534 76.7781 184.897 76.7781 185.375C76.7781 185.988 76.5219 186.463 76.0094 186.8C75.5 187.138 74.7672 187.306 73.8109 187.306C73.0797 187.306 72.5203 187.178 72.1328 186.922C71.7484 186.669 71.5563 186.313 71.5563 185.853C71.5563 185.538 71.6547 185.273 71.8516 185.061C72.0484 184.848 72.3375 184.697 72.7188 184.606C72.5719 184.544 72.4438 184.442 72.3344 184.302C72.225 184.158 72.1703 184.006 72.1703 183.847C72.1703 183.647 72.2281 183.481 72.3438 183.35C72.4594 183.216 72.6266 183.084 72.8453 182.956C72.5703 182.837 72.3516 182.647 72.1891 182.384C72.0297 182.122 71.95 181.812 71.95 181.456C71.95 180.884 72.1359 180.442 72.5078 180.13C72.8797 179.817 73.4109 179.661 74.1016 179.661C74.2484 179.661 74.4219 179.675 74.6219 179.703C74.825 179.728 74.9547 179.747 75.0109 179.759H76.8391ZM72.7938 185.741C72.7938 185.938 72.8875 186.092 73.075 186.205C73.2656 186.317 73.5313 186.373 73.8719 186.373C74.3844 186.373 74.7859 186.303 75.0766 186.163C75.3672 186.022 75.5125 185.83 75.5125 185.586C75.5125 185.389 75.4266 185.253 75.2547 185.178C75.0828 185.103 74.8172 185.066 74.4578 185.066H73.7172C73.4547 185.066 73.2344 185.127 73.0563 185.248C72.8813 185.373 72.7938 185.538 72.7938 185.741ZM73.3141 181.475C73.3141 181.759 73.3781 181.984 73.5063 182.15C73.6375 182.316 73.8359 182.398 74.1016 182.398C74.3703 182.398 74.5672 182.316 74.6922 182.15C74.8172 181.984 74.8797 181.759 74.8797 181.475C74.8797 180.844 74.6203 180.528 74.1016 180.528C73.5766 180.528 73.3141 180.844 73.3141 181.475ZM84.3578 183.097C84.3578 183.716 84.1344 184.203 83.6875 184.559C83.2438 184.916 82.625 185.094 81.8313 185.094C81.1 185.094 80.4531 184.956 79.8906 184.681V183.331C80.3531 183.537 80.7438 183.683 81.0625 183.767C81.3844 183.852 81.6781 183.894 81.9438 183.894C82.2625 183.894 82.5063 183.833 82.675 183.711C82.8469 183.589 82.9328 183.408 82.9328 183.167C82.9328 183.033 82.8953 182.914 82.8203 182.811C82.7453 182.705 82.6344 182.603 82.4875 182.506C82.3438 182.409 82.0484 182.255 81.6016 182.042C81.1828 181.845 80.8688 181.656 80.6594 181.475C80.45 181.294 80.2828 181.083 80.1578 180.842C80.0328 180.602 79.9703 180.32 79.9703 179.998C79.9703 179.392 80.175 178.916 80.5844 178.569C80.9969 178.222 81.5656 178.048 82.2906 178.048C82.6469 178.048 82.9859 178.091 83.3078 178.175C83.6328 178.259 83.9719 178.378 84.325 178.531L83.8563 179.661C83.4906 179.511 83.1875 179.406 82.9469 179.347C82.7094 179.287 82.475 179.258 82.2438 179.258C81.9688 179.258 81.7578 179.322 81.6109 179.45C81.4641 179.578 81.3906 179.745 81.3906 179.952C81.3906 180.08 81.4203 180.192 81.4797 180.289C81.5391 180.383 81.6328 180.475 81.7609 180.566C81.8922 180.653 82.2 180.812 82.6844 181.044C83.325 181.35 83.7641 181.658 84.0016 181.967C84.2391 182.273 84.3578 182.65 84.3578 183.097ZM87.6578 180.678C87.3547 180.678 87.1172 180.775 86.9453 180.969C86.7734 181.159 86.675 181.431 86.65 181.784H88.6563C88.65 181.431 88.5578 181.159 88.3797 180.969C88.2016 180.775 87.9609 180.678 87.6578 180.678ZM87.8594 185.094C87.0156 185.094 86.3563 184.861 85.8813 184.395C85.4063 183.93 85.1688 183.27 85.1688 182.417C85.1688 181.539 85.3875 180.861 85.825 180.383C86.2656 179.902 86.8734 179.661 87.6484 179.661C88.3891 179.661 88.9656 179.872 89.3781 180.294C89.7906 180.716 89.9969 181.298 89.9969 182.042V182.736H86.6172C86.6328 183.142 86.7531 183.459 86.9781 183.687C87.2031 183.916 87.5188 184.03 87.925 184.03C88.2406 184.03 88.5391 183.997 88.8203 183.931C89.1016 183.866 89.3953 183.761 89.7016 183.617V184.723C89.4516 184.848 89.1844 184.941 88.9 185C88.6156 185.063 88.2688 185.094 87.8594 185.094ZM93.2875 185.094C91.6563 185.094 90.8406 184.198 90.8406 182.408C90.8406 181.517 91.0625 180.837 91.5063 180.369C91.95 179.897 92.5859 179.661 93.4141 179.661C94.0203 179.661 94.5641 179.78 95.0453 180.017L94.6234 181.123C94.3984 181.033 94.1891 180.959 93.9953 180.903C93.8016 180.844 93.6078 180.814 93.4141 180.814C92.6703 180.814 92.2984 181.342 92.2984 182.398C92.2984 183.423 92.6703 183.936 93.4141 183.936C93.6891 183.936 93.9438 183.9 94.1781 183.828C94.4125 183.753 94.6469 183.637 94.8813 183.481V184.705C94.65 184.852 94.4156 184.953 94.1781 185.009C93.9438 185.066 93.6469 185.094 93.2875 185.094ZM98.3078 183.955C98.5578 183.955 98.8578 183.9 99.2078 183.791V184.855C98.8516 185.014 98.4141 185.094 97.8953 185.094C97.3234 185.094 96.9063 184.95 96.6438 184.662C96.3844 184.372 96.2547 183.937 96.2547 183.359V180.833H95.5703V180.228L96.3578 179.75L96.7703 178.644H97.6844V179.759H99.1516V180.833H97.6844V183.359C97.6844 183.562 97.7406 183.712 97.8531 183.809C97.9688 183.906 98.1203 183.955 98.3078 183.955ZM100.211 178.405C100.211 177.939 100.47 177.706 100.989 177.706C101.508 177.706 101.767 177.939 101.767 178.405C101.767 178.627 101.702 178.8 101.57 178.925C101.442 179.047 101.248 179.108 100.989 179.108C100.47 179.108 100.211 178.873 100.211 178.405ZM101.702 185H100.272V179.759H101.702V185ZM104.345 182.37C104.345 182.889 104.43 183.281 104.598 183.547C104.77 183.812 105.048 183.945 105.433 183.945C105.814 183.945 106.088 183.814 106.253 183.552C106.422 183.286 106.506 182.892 106.506 182.37C106.506 181.852 106.422 181.462 106.253 181.203C106.084 180.944 105.808 180.814 105.423 180.814C105.042 180.814 104.767 180.944 104.598 181.203C104.43 181.459 104.345 181.848 104.345 182.37ZM107.969 182.37C107.969 183.223 107.744 183.891 107.294 184.372C106.844 184.853 106.217 185.094 105.414 185.094C104.911 185.094 104.467 184.984 104.083 184.766C103.698 184.544 103.403 184.227 103.197 183.814C102.991 183.402 102.888 182.92 102.888 182.37C102.888 181.514 103.111 180.848 103.558 180.373C104.005 179.898 104.633 179.661 105.442 179.661C105.945 179.661 106.389 179.77 106.773 179.989C107.158 180.208 107.453 180.522 107.659 180.931C107.866 181.341 107.969 181.82 107.969 182.37ZM113.988 185H112.558V181.939C112.558 181.561 112.491 181.278 112.356 181.091C112.222 180.9 112.008 180.805 111.714 180.805C111.314 180.805 111.025 180.939 110.847 181.208C110.669 181.473 110.58 181.916 110.58 182.534V185H109.15V179.759H110.242L110.434 180.43H110.514C110.673 180.177 110.892 179.986 111.17 179.858C111.452 179.727 111.77 179.661 112.127 179.661C112.736 179.661 113.198 179.827 113.514 180.158C113.83 180.486 113.988 180.961 113.988 181.583V185ZM122.261 185L121.764 183.369H119.266L118.769 185H117.203L119.622 178.119H121.398L123.827 185H122.261ZM121.417 182.15C120.958 180.672 120.698 179.836 120.639 179.642C120.583 179.448 120.542 179.295 120.517 179.183C120.414 179.583 120.119 180.572 119.631 182.15H121.417Z" fill="#4A4A4A"/>
<path d="M40 185.961H123.827V186.439H40V185.961Z" fill="#4A4A4A"/>
</g>
</g>
<g id="Group 5">
<path id="Inner diameter" d="M190.836 293V287.289H191.5V293H190.836ZM195.902 293V290.23C195.902 289.882 195.823 289.621 195.664 289.449C195.505 289.277 195.257 289.191 194.918 289.191C194.47 289.191 194.142 289.312 193.934 289.555C193.725 289.797 193.621 290.197 193.621 290.754V293H192.973V288.719H193.5L193.605 289.305H193.637C193.77 289.094 193.956 288.931 194.195 288.816C194.435 288.699 194.702 288.641 194.996 288.641C195.512 288.641 195.9 288.766 196.16 289.016C196.421 289.263 196.551 289.66 196.551 290.207V293H195.902ZM200.816 293V290.23C200.816 289.882 200.737 289.621 200.578 289.449C200.419 289.277 200.171 289.191 199.832 289.191C199.384 289.191 199.056 289.312 198.848 289.555C198.639 289.797 198.535 290.197 198.535 290.754V293H197.887V288.719H198.414L198.52 289.305H198.551C198.684 289.094 198.87 288.931 199.109 288.816C199.349 288.699 199.616 288.641 199.91 288.641C200.426 288.641 200.814 288.766 201.074 289.016C201.335 289.263 201.465 289.66 201.465 290.207V293H200.816ZM204.609 293.078C203.977 293.078 203.477 292.885 203.109 292.5C202.745 292.115 202.562 291.579 202.562 290.895C202.562 290.204 202.732 289.656 203.07 289.25C203.411 288.844 203.868 288.641 204.441 288.641C204.978 288.641 205.402 288.818 205.715 289.172C206.027 289.523 206.184 289.988 206.184 290.566V290.977H203.234C203.247 291.479 203.374 291.861 203.613 292.121C203.855 292.382 204.195 292.512 204.633 292.512C205.094 292.512 205.549 292.415 206 292.223V292.801C205.771 292.9 205.553 292.97 205.348 293.012C205.145 293.056 204.898 293.078 204.609 293.078ZM204.434 289.184C204.09 289.184 203.815 289.296 203.609 289.52C203.406 289.743 203.286 290.053 203.25 290.449H205.488C205.488 290.04 205.397 289.728 205.215 289.512C205.033 289.293 204.772 289.184 204.434 289.184ZM209.246 288.641C209.436 288.641 209.607 288.656 209.758 288.688L209.668 289.289C209.491 289.25 209.335 289.23 209.199 289.23C208.853 289.23 208.556 289.371 208.309 289.652C208.064 289.934 207.941 290.284 207.941 290.703V293H207.293V288.719H207.828L207.902 289.512H207.934C208.092 289.233 208.284 289.018 208.508 288.867C208.732 288.716 208.978 288.641 209.246 288.641ZM187.648 303.426H187.613C187.314 303.861 186.866 304.078 186.27 304.078C185.71 304.078 185.273 303.887 184.961 303.504C184.651 303.121 184.496 302.577 184.496 301.871C184.496 301.165 184.652 300.617 184.965 300.227C185.277 299.836 185.712 299.641 186.27 299.641C186.85 299.641 187.296 299.852 187.605 300.273H187.656L187.629 299.965L187.613 299.664V297.922H188.262V304H187.734L187.648 303.426ZM186.352 303.535C186.794 303.535 187.115 303.415 187.312 303.176C187.513 302.934 187.613 302.544 187.613 302.008V301.871C187.613 301.264 187.512 300.832 187.309 300.574C187.108 300.314 186.786 300.184 186.344 300.184C185.964 300.184 185.672 300.332 185.469 300.629C185.268 300.923 185.168 301.34 185.168 301.879C185.168 302.426 185.268 302.839 185.469 303.117C185.669 303.396 185.964 303.535 186.352 303.535ZM190.289 304H189.641V299.719H190.289V304ZM189.586 298.559C189.586 298.41 189.622 298.302 189.695 298.234C189.768 298.164 189.859 298.129 189.969 298.129C190.073 298.129 190.163 298.164 190.238 298.234C190.314 298.305 190.352 298.413 190.352 298.559C190.352 298.704 190.314 298.814 190.238 298.887C190.163 298.957 190.073 298.992 189.969 298.992C189.859 298.992 189.768 298.957 189.695 298.887C189.622 298.814 189.586 298.704 189.586 298.559ZM194.297 304L194.168 303.391H194.137C193.923 303.659 193.71 303.841 193.496 303.938C193.285 304.031 193.021 304.078 192.703 304.078C192.279 304.078 191.945 303.969 191.703 303.75C191.464 303.531 191.344 303.22 191.344 302.816C191.344 301.952 192.035 301.499 193.418 301.457L194.145 301.434V301.168C194.145 300.832 194.072 300.585 193.926 300.426C193.783 300.264 193.552 300.184 193.234 300.184C192.878 300.184 192.474 300.293 192.023 300.512L191.824 300.016C192.035 299.901 192.266 299.811 192.516 299.746C192.768 299.681 193.021 299.648 193.273 299.648C193.784 299.648 194.161 299.762 194.406 299.988C194.654 300.215 194.777 300.578 194.777 301.078V304H194.297ZM192.832 303.543C193.236 303.543 193.552 303.432 193.781 303.211C194.013 302.99 194.129 302.68 194.129 302.281V301.895L193.48 301.922C192.965 301.94 192.592 302.021 192.363 302.164C192.137 302.305 192.023 302.525 192.023 302.824C192.023 303.059 192.094 303.237 192.234 303.359C192.378 303.482 192.577 303.543 192.832 303.543ZM201.574 304V301.215C201.574 300.874 201.501 300.618 201.355 300.449C201.21 300.277 200.983 300.191 200.676 300.191C200.272 300.191 199.974 300.307 199.781 300.539C199.589 300.771 199.492 301.128 199.492 301.609V304H198.844V301.215C198.844 300.874 198.771 300.618 198.625 300.449C198.479 300.277 198.251 300.191 197.941 300.191C197.535 300.191 197.237 300.314 197.047 300.559C196.859 300.801 196.766 301.199 196.766 301.754V304H196.117V299.719H196.645L196.75 300.305H196.781C196.904 300.096 197.076 299.934 197.297 299.816C197.521 299.699 197.771 299.641 198.047 299.641C198.716 299.641 199.154 299.883 199.359 300.367H199.391C199.518 300.143 199.703 299.966 199.945 299.836C200.188 299.706 200.464 299.641 200.773 299.641C201.258 299.641 201.62 299.766 201.859 300.016C202.102 300.263 202.223 300.66 202.223 301.207V304H201.574ZM205.371 304.078C204.738 304.078 204.238 303.885 203.871 303.5C203.507 303.115 203.324 302.579 203.324 301.895C203.324 301.204 203.493 300.656 203.832 300.25C204.173 299.844 204.63 299.641 205.203 299.641C205.74 299.641 206.164 299.818 206.477 300.172C206.789 300.523 206.945 300.988 206.945 301.566V301.977H203.996C204.009 302.479 204.135 302.861 204.375 303.121C204.617 303.382 204.957 303.512 205.395 303.512C205.855 303.512 206.311 303.415 206.762 303.223V303.801C206.533 303.9 206.315 303.97 206.109 304.012C205.906 304.056 205.66 304.078 205.371 304.078ZM205.195 300.184C204.852 300.184 204.577 300.296 204.371 300.52C204.168 300.743 204.048 301.053 204.012 301.449H206.25C206.25 301.04 206.159 300.728 205.977 300.512C205.794 300.293 205.534 300.184 205.195 300.184ZM209.438 303.543C209.552 303.543 209.663 303.535 209.77 303.52C209.876 303.501 209.961 303.483 210.023 303.465V303.961C209.953 303.995 209.849 304.022 209.711 304.043C209.576 304.066 209.453 304.078 209.344 304.078C208.516 304.078 208.102 303.642 208.102 302.77V300.223H207.488V299.91L208.102 299.641L208.375 298.727H208.75V299.719H209.992V300.223H208.75V302.742C208.75 303 208.811 303.198 208.934 303.336C209.056 303.474 209.224 303.543 209.438 303.543ZM212.691 304.078C212.059 304.078 211.559 303.885 211.191 303.5C210.827 303.115 210.645 302.579 210.645 301.895C210.645 301.204 210.814 300.656 211.152 300.25C211.493 299.844 211.951 299.641 212.523 299.641C213.06 299.641 213.484 299.818 213.797 300.172C214.109 300.523 214.266 300.988 214.266 301.566V301.977H211.316C211.329 302.479 211.456 302.861 211.695 303.121C211.938 303.382 212.277 303.512 212.715 303.512C213.176 303.512 213.632 303.415 214.082 303.223V303.801C213.853 303.9 213.635 303.97 213.43 304.012C213.227 304.056 212.98 304.078 212.691 304.078ZM212.516 300.184C212.172 300.184 211.897 300.296 211.691 300.52C211.488 300.743 211.368 301.053 211.332 301.449H213.57C213.57 301.04 213.479 300.728 213.297 300.512C213.115 300.293 212.854 300.184 212.516 300.184ZM217.328 299.641C217.518 299.641 217.689 299.656 217.84 299.688L217.75 300.289C217.573 300.25 217.417 300.23 217.281 300.23C216.935 300.23 216.638 300.371 216.391 300.652C216.146 300.934 216.023 301.284 216.023 301.703V304H215.375V299.719H215.91L215.984 300.512H216.016C216.174 300.233 216.366 300.018 216.59 299.867C216.814 299.716 217.06 299.641 217.328 299.641Z" fill="#9B9B9B"/>
<path id="Outer diameter" d="M241.836 289.137C241.836 290.051 241.604 290.77 241.141 291.293C240.68 291.816 240.038 292.078 239.215 292.078C238.374 292.078 237.724 291.822 237.266 291.309C236.81 290.793 236.582 290.066 236.582 289.129C236.582 288.199 236.811 287.479 237.27 286.969C237.728 286.456 238.379 286.199 239.223 286.199C240.043 286.199 240.684 286.46 241.145 286.98C241.605 287.501 241.836 288.22 241.836 289.137ZM237.285 289.137C237.285 289.91 237.449 290.497 237.777 290.898C238.108 291.297 238.587 291.496 239.215 291.496C239.848 291.496 240.326 291.297 240.648 290.898C240.971 290.5 241.133 289.913 241.133 289.137C241.133 288.368 240.971 287.786 240.648 287.391C240.328 286.992 239.853 286.793 239.223 286.793C238.59 286.793 238.108 286.993 237.777 287.395C237.449 287.793 237.285 288.374 237.285 289.137ZM243.625 287.719V290.496C243.625 290.845 243.704 291.105 243.863 291.277C244.022 291.449 244.271 291.535 244.609 291.535C245.057 291.535 245.384 291.413 245.59 291.168C245.798 290.923 245.902 290.523 245.902 289.969V287.719H246.551V292H246.016L245.922 291.426H245.887C245.754 291.637 245.569 291.798 245.332 291.91C245.098 292.022 244.829 292.078 244.527 292.078C244.007 292.078 243.616 291.954 243.355 291.707C243.098 291.46 242.969 291.064 242.969 290.52V287.719H243.625ZM249.312 291.543C249.427 291.543 249.538 291.535 249.645 291.52C249.751 291.501 249.836 291.483 249.898 291.465V291.961C249.828 291.995 249.724 292.022 249.586 292.043C249.451 292.066 249.328 292.078 249.219 292.078C248.391 292.078 247.977 291.642 247.977 290.77V288.223H247.363V287.91L247.977 287.641L248.25 286.727H248.625V287.719H249.867V288.223H248.625V290.742C248.625 291 248.686 291.198 248.809 291.336C248.931 291.474 249.099 291.543 249.312 291.543ZM252.566 292.078C251.934 292.078 251.434 291.885 251.066 291.5C250.702 291.115 250.52 290.579 250.52 289.895C250.52 289.204 250.689 288.656 251.027 288.25C251.368 287.844 251.826 287.641 252.398 287.641C252.935 287.641 253.359 287.818 253.672 288.172C253.984 288.523 254.141 288.988 254.141 289.566V289.977H251.191C251.204 290.479 251.331 290.861 251.57 291.121C251.812 291.382 252.152 291.512 252.59 291.512C253.051 291.512 253.507 291.415 253.957 291.223V291.801C253.728 291.9 253.51 291.97 253.305 292.012C253.102 292.056 252.855 292.078 252.566 292.078ZM252.391 288.184C252.047 288.184 251.772 288.296 251.566 288.52C251.363 288.743 251.243 289.053 251.207 289.449H253.445C253.445 289.04 253.354 288.728 253.172 288.512C252.99 288.293 252.729 288.184 252.391 288.184ZM257.203 287.641C257.393 287.641 257.564 287.656 257.715 287.688L257.625 288.289C257.448 288.25 257.292 288.23 257.156 288.23C256.81 288.23 256.513 288.371 256.266 288.652C256.021 288.934 255.898 289.284 255.898 289.703V292H255.25V287.719H255.785L255.859 288.512H255.891C256.049 288.233 256.241 288.018 256.465 287.867C256.689 287.716 256.935 287.641 257.203 287.641ZM234.648 302.426H234.613C234.314 302.861 233.866 303.078 233.27 303.078C232.71 303.078 232.273 302.887 231.961 302.504C231.651 302.121 231.496 301.577 231.496 300.871C231.496 300.165 231.652 299.617 231.965 299.227C232.277 298.836 232.712 298.641 233.27 298.641C233.85 298.641 234.296 298.852 234.605 299.273H234.656L234.629 298.965L234.613 298.664V296.922H235.262V303H234.734L234.648 302.426ZM233.352 302.535C233.794 302.535 234.115 302.415 234.312 302.176C234.513 301.934 234.613 301.544 234.613 301.008V300.871C234.613 300.264 234.512 299.832 234.309 299.574C234.108 299.314 233.786 299.184 233.344 299.184C232.964 299.184 232.672 299.332 232.469 299.629C232.268 299.923 232.168 300.34 232.168 300.879C232.168 301.426 232.268 301.839 232.469 302.117C232.669 302.396 232.964 302.535 233.352 302.535ZM237.289 303H236.641V298.719H237.289V303ZM236.586 297.559C236.586 297.41 236.622 297.302 236.695 297.234C236.768 297.164 236.859 297.129 236.969 297.129C237.073 297.129 237.163 297.164 237.238 297.234C237.314 297.305 237.352 297.413 237.352 297.559C237.352 297.704 237.314 297.814 237.238 297.887C237.163 297.957 237.073 297.992 236.969 297.992C236.859 297.992 236.768 297.957 236.695 297.887C236.622 297.814 236.586 297.704 236.586 297.559ZM241.297 303L241.168 302.391H241.137C240.923 302.659 240.71 302.841 240.496 302.938C240.285 303.031 240.021 303.078 239.703 303.078C239.279 303.078 238.945 302.969 238.703 302.75C238.464 302.531 238.344 302.22 238.344 301.816C238.344 300.952 239.035 300.499 240.418 300.457L241.145 300.434V300.168C241.145 299.832 241.072 299.585 240.926 299.426C240.783 299.264 240.552 299.184 240.234 299.184C239.878 299.184 239.474 299.293 239.023 299.512L238.824 299.016C239.035 298.901 239.266 298.811 239.516 298.746C239.768 298.681 240.021 298.648 240.273 298.648C240.784 298.648 241.161 298.762 241.406 298.988C241.654 299.215 241.777 299.578 241.777 300.078V303H241.297ZM239.832 302.543C240.236 302.543 240.552 302.432 240.781 302.211C241.013 301.99 241.129 301.68 241.129 301.281V300.895L240.48 300.922C239.965 300.94 239.592 301.021 239.363 301.164C239.137 301.305 239.023 301.525 239.023 301.824C239.023 302.059 239.094 302.237 239.234 302.359C239.378 302.482 239.577 302.543 239.832 302.543ZM248.574 303V300.215C248.574 299.874 248.501 299.618 248.355 299.449C248.21 299.277 247.983 299.191 247.676 299.191C247.272 299.191 246.974 299.307 246.781 299.539C246.589 299.771 246.492 300.128 246.492 300.609V303H245.844V300.215C245.844 299.874 245.771 299.618 245.625 299.449C245.479 299.277 245.251 299.191 244.941 299.191C244.535 299.191 244.237 299.314 244.047 299.559C243.859 299.801 243.766 300.199 243.766 300.754V303H243.117V298.719H243.645L243.75 299.305H243.781C243.904 299.096 244.076 298.934 244.297 298.816C244.521 298.699 244.771 298.641 245.047 298.641C245.716 298.641 246.154 298.883 246.359 299.367H246.391C246.518 299.143 246.703 298.966 246.945 298.836C247.188 298.706 247.464 298.641 247.773 298.641C248.258 298.641 248.62 298.766 248.859 299.016C249.102 299.263 249.223 299.66 249.223 300.207V303H248.574ZM252.371 303.078C251.738 303.078 251.238 302.885 250.871 302.5C250.507 302.115 250.324 301.579 250.324 300.895C250.324 300.204 250.493 299.656 250.832 299.25C251.173 298.844 251.63 298.641 252.203 298.641C252.74 298.641 253.164 298.818 253.477 299.172C253.789 299.523 253.945 299.988 253.945 300.566V300.977H250.996C251.009 301.479 251.135 301.861 251.375 302.121C251.617 302.382 251.957 302.512 252.395 302.512C252.855 302.512 253.311 302.415 253.762 302.223V302.801C253.533 302.9 253.315 302.97 253.109 303.012C252.906 303.056 252.66 303.078 252.371 303.078ZM252.195 299.184C251.852 299.184 251.577 299.296 251.371 299.52C251.168 299.743 251.048 300.053 251.012 300.449H253.25C253.25 300.04 253.159 299.728 252.977 299.512C252.794 299.293 252.534 299.184 252.195 299.184ZM256.438 302.543C256.552 302.543 256.663 302.535 256.77 302.52C256.876 302.501 256.961 302.483 257.023 302.465V302.961C256.953 302.995 256.849 303.022 256.711 303.043C256.576 303.066 256.453 303.078 256.344 303.078C255.516 303.078 255.102 302.642 255.102 301.77V299.223H254.488V298.91L255.102 298.641L255.375 297.727H255.75V298.719H256.992V299.223H255.75V301.742C255.75 302 255.811 302.198 255.934 302.336C256.056 302.474 256.224 302.543 256.438 302.543ZM259.691 303.078C259.059 303.078 258.559 302.885 258.191 302.5C257.827 302.115 257.645 301.579 257.645 300.895C257.645 300.204 257.814 299.656 258.152 299.25C258.493 298.844 258.951 298.641 259.523 298.641C260.06 298.641 260.484 298.818 260.797 299.172C261.109 299.523 261.266 299.988 261.266 300.566V300.977H258.316C258.329 301.479 258.456 301.861 258.695 302.121C258.938 302.382 259.277 302.512 259.715 302.512C260.176 302.512 260.632 302.415 261.082 302.223V302.801C260.853 302.9 260.635 302.97 260.43 303.012C260.227 303.056 259.98 303.078 259.691 303.078ZM259.516 299.184C259.172 299.184 258.897 299.296 258.691 299.52C258.488 299.743 258.368 300.053 258.332 300.449H260.57C260.57 300.04 260.479 299.728 260.297 299.512C260.115 299.293 259.854 299.184 259.516 299.184ZM264.328 298.641C264.518 298.641 264.689 298.656 264.84 298.688L264.75 299.289C264.573 299.25 264.417 299.23 264.281 299.23C263.935 299.23 263.638 299.371 263.391 299.652C263.146 299.934 263.023 300.284 263.023 300.703V303H262.375V298.719H262.91L262.984 299.512H263.016C263.174 299.233 263.366 299.018 263.59 298.867C263.814 298.716 264.06 298.641 264.328 298.641Z" fill="#9B9B9B"/>
<path id="Diameter of ball" d="M191.465 346.09C191.465 347.033 191.208 347.754 190.695 348.254C190.185 348.751 189.449 349 188.488 349H186.906V343.289H188.656C189.544 343.289 190.234 343.535 190.727 344.027C191.219 344.52 191.465 345.207 191.465 346.09ZM190.762 346.113C190.762 345.368 190.574 344.807 190.199 344.43C189.827 344.052 189.272 343.863 188.535 343.863H187.57V348.426H188.379C189.171 348.426 189.766 348.232 190.164 347.844C190.562 347.453 190.762 346.876 190.762 346.113ZM193.293 349H192.645V344.719H193.293V349ZM192.59 343.559C192.59 343.41 192.626 343.302 192.699 343.234C192.772 343.164 192.863 343.129 192.973 343.129C193.077 343.129 193.167 343.164 193.242 343.234C193.318 343.305 193.355 343.413 193.355 343.559C193.355 343.704 193.318 343.814 193.242 343.887C193.167 343.957 193.077 343.992 192.973 343.992C192.863 343.992 192.772 343.957 192.699 343.887C192.626 343.814 192.59 343.704 192.59 343.559ZM197.301 349L197.172 348.391H197.141C196.927 348.659 196.714 348.841 196.5 348.938C196.289 349.031 196.025 349.078 195.707 349.078C195.283 349.078 194.949 348.969 194.707 348.75C194.467 348.531 194.348 348.22 194.348 347.816C194.348 346.952 195.039 346.499 196.422 346.457L197.148 346.434V346.168C197.148 345.832 197.076 345.585 196.93 345.426C196.786 345.264 196.556 345.184 196.238 345.184C195.882 345.184 195.478 345.293 195.027 345.512L194.828 345.016C195.039 344.901 195.27 344.811 195.52 344.746C195.772 344.681 196.025 344.648 196.277 344.648C196.788 344.648 197.165 344.762 197.41 344.988C197.658 345.215 197.781 345.578 197.781 346.078V349H197.301ZM195.836 348.543C196.24 348.543 196.556 348.432 196.785 348.211C197.017 347.99 197.133 347.68 197.133 347.281V346.895L196.484 346.922C195.969 346.94 195.596 347.021 195.367 347.164C195.141 347.305 195.027 347.525 195.027 347.824C195.027 348.059 195.098 348.237 195.238 348.359C195.382 348.482 195.581 348.543 195.836 348.543ZM204.578 349V346.215C204.578 345.874 204.505 345.618 204.359 345.449C204.214 345.277 203.987 345.191 203.68 345.191C203.276 345.191 202.978 345.307 202.785 345.539C202.592 345.771 202.496 346.128 202.496 346.609V349H201.848V346.215C201.848 345.874 201.775 345.618 201.629 345.449C201.483 345.277 201.255 345.191 200.945 345.191C200.539 345.191 200.241 345.314 200.051 345.559C199.863 345.801 199.77 346.199 199.77 346.754V349H199.121V344.719H199.648L199.754 345.305H199.785C199.908 345.096 200.079 344.934 200.301 344.816C200.525 344.699 200.775 344.641 201.051 344.641C201.72 344.641 202.158 344.883 202.363 345.367H202.395C202.522 345.143 202.707 344.966 202.949 344.836C203.191 344.706 203.467 344.641 203.777 344.641C204.262 344.641 204.624 344.766 204.863 345.016C205.105 345.263 205.227 345.66 205.227 346.207V349H204.578ZM208.375 349.078C207.742 349.078 207.242 348.885 206.875 348.5C206.51 348.115 206.328 347.579 206.328 346.895C206.328 346.204 206.497 345.656 206.836 345.25C207.177 344.844 207.634 344.641 208.207 344.641C208.743 344.641 209.168 344.818 209.48 345.172C209.793 345.523 209.949 345.988 209.949 346.566V346.977H207C207.013 347.479 207.139 347.861 207.379 348.121C207.621 348.382 207.961 348.512 208.398 348.512C208.859 348.512 209.315 348.415 209.766 348.223V348.801C209.536 348.9 209.319 348.97 209.113 349.012C208.91 349.056 208.664 349.078 208.375 349.078ZM208.199 345.184C207.855 345.184 207.581 345.296 207.375 345.52C207.172 345.743 207.052 346.053 207.016 346.449H209.254C209.254 346.04 209.163 345.728 208.98 345.512C208.798 345.293 208.538 345.184 208.199 345.184ZM212.441 348.543C212.556 348.543 212.667 348.535 212.773 348.52C212.88 348.501 212.965 348.483 213.027 348.465V348.961C212.957 348.995 212.853 349.022 212.715 349.043C212.579 349.066 212.457 349.078 212.348 349.078C211.52 349.078 211.105 348.642 211.105 347.77V345.223H210.492V344.91L211.105 344.641L211.379 343.727H211.754V344.719H212.996V345.223H211.754V347.742C211.754 348 211.815 348.198 211.938 348.336C212.06 348.474 212.228 348.543 212.441 348.543ZM215.695 349.078C215.062 349.078 214.562 348.885 214.195 348.5C213.831 348.115 213.648 347.579 213.648 346.895C213.648 346.204 213.818 345.656 214.156 345.25C214.497 344.844 214.954 344.641 215.527 344.641C216.064 344.641 216.488 344.818 216.801 345.172C217.113 345.523 217.27 345.988 217.27 346.566V346.977H214.32C214.333 347.479 214.46 347.861 214.699 348.121C214.941 348.382 215.281 348.512 215.719 348.512C216.18 348.512 216.635 348.415 217.086 348.223V348.801C216.857 348.9 216.639 348.97 216.434 349.012C216.23 349.056 215.984 349.078 215.695 349.078ZM215.52 345.184C215.176 345.184 214.901 345.296 214.695 345.52C214.492 345.743 214.372 346.053 214.336 346.449H216.574C216.574 346.04 216.483 345.728 216.301 345.512C216.118 345.293 215.858 345.184 215.52 345.184ZM220.332 344.641C220.522 344.641 220.693 344.656 220.844 344.688L220.754 345.289C220.577 345.25 220.421 345.23 220.285 345.23C219.939 345.23 219.642 345.371 219.395 345.652C219.15 345.934 219.027 346.284 219.027 346.703V349H218.379V344.719H218.914L218.988 345.512H219.02C219.178 345.233 219.37 345.018 219.594 344.867C219.818 344.716 220.064 344.641 220.332 344.641ZM195.367 357.855C195.367 358.553 195.191 359.099 194.84 359.492C194.488 359.883 194.003 360.078 193.383 360.078C193 360.078 192.66 359.988 192.363 359.809C192.066 359.629 191.837 359.371 191.676 359.035C191.514 358.699 191.434 358.306 191.434 357.855C191.434 357.158 191.608 356.615 191.957 356.227C192.306 355.836 192.79 355.641 193.41 355.641C194.009 355.641 194.484 355.84 194.836 356.238C195.19 356.637 195.367 357.176 195.367 357.855ZM192.105 357.855C192.105 358.402 192.215 358.819 192.434 359.105C192.652 359.392 192.974 359.535 193.398 359.535C193.823 359.535 194.145 359.393 194.363 359.109C194.585 358.823 194.695 358.405 194.695 357.855C194.695 357.311 194.585 356.898 194.363 356.617C194.145 356.333 193.82 356.191 193.391 356.191C192.966 356.191 192.646 356.331 192.43 356.609C192.214 356.888 192.105 357.303 192.105 357.855ZM198.438 356.223H197.348V360H196.699V356.223H195.934V355.93L196.699 355.695V355.457C196.699 354.405 197.159 353.879 198.078 353.879C198.305 353.879 198.57 353.924 198.875 354.016L198.707 354.535C198.457 354.454 198.243 354.414 198.066 354.414C197.822 354.414 197.641 354.496 197.523 354.66C197.406 354.822 197.348 355.082 197.348 355.441V355.719H198.438V356.223ZM203.289 355.648C203.852 355.648 204.288 355.841 204.598 356.227C204.91 356.609 205.066 357.152 205.066 357.855C205.066 358.559 204.909 359.105 204.594 359.496C204.281 359.884 203.846 360.078 203.289 360.078C203.01 360.078 202.755 360.027 202.523 359.926C202.294 359.822 202.102 359.663 201.945 359.449H201.898L201.762 360H201.297V353.922H201.945V355.398C201.945 355.729 201.935 356.026 201.914 356.289H201.945C202.247 355.862 202.695 355.648 203.289 355.648ZM203.195 356.191C202.753 356.191 202.434 356.319 202.238 356.574C202.043 356.827 201.945 357.254 201.945 357.855C201.945 358.457 202.046 358.888 202.246 359.148C202.447 359.406 202.768 359.535 203.211 359.535C203.609 359.535 203.906 359.391 204.102 359.102C204.297 358.81 204.395 358.392 204.395 357.848C204.395 357.29 204.297 356.875 204.102 356.602C203.906 356.328 203.604 356.191 203.195 356.191ZM208.836 360L208.707 359.391H208.676C208.462 359.659 208.249 359.841 208.035 359.938C207.824 360.031 207.56 360.078 207.242 360.078C206.818 360.078 206.484 359.969 206.242 359.75C206.003 359.531 205.883 359.22 205.883 358.816C205.883 357.952 206.574 357.499 207.957 357.457L208.684 357.434V357.168C208.684 356.832 208.611 356.585 208.465 356.426C208.322 356.264 208.091 356.184 207.773 356.184C207.417 356.184 207.013 356.293 206.562 356.512L206.363 356.016C206.574 355.901 206.805 355.811 207.055 355.746C207.307 355.681 207.56 355.648 207.812 355.648C208.323 355.648 208.701 355.762 208.945 355.988C209.193 356.215 209.316 356.578 209.316 357.078V360H208.836ZM207.371 359.543C207.775 359.543 208.091 359.432 208.32 359.211C208.552 358.99 208.668 358.68 208.668 358.281V357.895L208.02 357.922C207.504 357.94 207.132 358.021 206.902 358.164C206.676 358.305 206.562 358.525 206.562 358.824C206.562 359.059 206.633 359.237 206.773 359.359C206.917 359.482 207.116 359.543 207.371 359.543ZM211.305 360H210.656V353.922H211.305V360ZM213.328 360H212.68V353.922H213.328V360Z" fill="#9B9B9B"/>
<g id="Bearing Section B">
<path d="M40.8625 384.147H42.9953C43.9672 384.147 44.6719 384.286 45.1094 384.564C45.55 384.839 45.7703 385.278 45.7703 385.881C45.7703 386.291 45.6734 386.627 45.4797 386.889C45.2891 387.152 45.0344 387.309 44.7156 387.362V387.409C45.15 387.506 45.4625 387.687 45.6531 387.953C45.8469 388.219 45.9438 388.572 45.9438 389.012C45.9438 389.637 45.7172 390.125 45.2641 390.475C44.8141 390.825 44.2016 391 43.4266 391H40.8625V384.147ZM42.3156 386.861H43.1594C43.5531 386.861 43.8375 386.8 44.0125 386.678C44.1906 386.556 44.2797 386.355 44.2797 386.073C44.2797 385.811 44.1828 385.623 43.9891 385.511C43.7984 385.395 43.4953 385.337 43.0797 385.337H42.3156V386.861ZM42.3156 388.014V389.8H43.2625C43.6625 389.8 43.9578 389.723 44.1484 389.57C44.3391 389.417 44.4344 389.183 44.4344 388.867C44.4344 388.298 44.0281 388.014 43.2156 388.014H42.3156ZM49.3703 386.678C49.0672 386.678 48.8297 386.775 48.6578 386.969C48.4859 387.159 48.3875 387.431 48.3625 387.784H50.3688C50.3625 387.431 50.2703 387.159 50.0922 386.969C49.9141 386.775 49.6734 386.678 49.3703 386.678ZM49.5719 391.094C48.7281 391.094 48.0688 390.861 47.5938 390.395C47.1188 389.93 46.8813 389.27 46.8813 388.417C46.8813 387.539 47.1 386.861 47.5375 386.383C47.9781 385.902 48.5859 385.661 49.3609 385.661C50.1016 385.661 50.6781 385.872 51.0906 386.294C51.5031 386.716 51.7094 387.298 51.7094 388.042V388.736H48.3297C48.3453 389.142 48.4656 389.459 48.6906 389.687C48.9156 389.916 49.2313 390.03 49.6375 390.03C49.9531 390.03 50.2516 389.997 50.5328 389.931C50.8141 389.866 51.1078 389.761 51.4141 389.617V390.723C51.1641 390.848 50.8969 390.941 50.6125 391C50.3281 391.063 49.9813 391.094 49.5719 391.094ZM56.2 391L55.9234 390.287H55.8859C55.6453 390.591 55.3969 390.802 55.1406 390.92C54.8875 391.036 54.5563 391.094 54.1469 391.094C53.6438 391.094 53.2469 390.95 52.9563 390.662C52.6688 390.375 52.525 389.966 52.525 389.434C52.525 388.878 52.7188 388.469 53.1063 388.206C53.4969 387.941 54.0844 387.794 54.8688 387.766L55.7781 387.737V387.508C55.7781 386.977 55.5063 386.711 54.9625 386.711C54.5438 386.711 54.0516 386.837 53.4859 387.091L53.0125 386.125C53.6156 385.809 54.2844 385.652 55.0188 385.652C55.7219 385.652 56.2609 385.805 56.6359 386.111C57.0109 386.417 57.1984 386.883 57.1984 387.508V391H56.2ZM55.7781 388.572L55.225 388.591C54.8094 388.603 54.5 388.678 54.2969 388.816C54.0938 388.953 53.9922 389.162 53.9922 389.444C53.9922 389.847 54.2234 390.048 54.6859 390.048C55.0172 390.048 55.2813 389.953 55.4781 389.762C55.6781 389.572 55.7781 389.319 55.7781 389.003V388.572ZM61.6 385.661C61.7938 385.661 61.9547 385.675 62.0828 385.703L61.975 387.044C61.8594 387.012 61.7188 386.997 61.5531 386.997C61.0969 386.997 60.7406 387.114 60.4844 387.348C60.2313 387.583 60.1047 387.911 60.1047 388.333V391H58.675V385.759H59.7578L59.9688 386.641H60.0391C60.2016 386.347 60.4203 386.111 60.6953 385.933C60.9734 385.752 61.275 385.661 61.6 385.661ZM62.9734 384.405C62.9734 383.939 63.2328 383.706 63.7516 383.706C64.2703 383.706 64.5297 383.939 64.5297 384.405C64.5297 384.627 64.4641 384.8 64.3328 384.925C64.2047 385.047 64.0109 385.108 63.7516 385.108C63.2328 385.108 62.9734 384.873 62.9734 384.405ZM64.4641 391H63.0344V385.759H64.4641V391ZM70.8063 391H69.3766V387.939C69.3766 387.561 69.3094 387.278 69.175 387.091C69.0406 386.9 68.8266 386.805 68.5328 386.805C68.1328 386.805 67.8438 386.939 67.6656 387.208C67.4875 387.473 67.3984 387.916 67.3984 388.534V391H65.9688V385.759H67.0609L67.2531 386.43H67.3328C67.4922 386.177 67.7109 385.986 67.9891 385.858C68.2703 385.727 68.5891 385.661 68.9453 385.661C69.5547 385.661 70.0172 385.827 70.3328 386.158C70.6484 386.486 70.8063 386.961 70.8063 387.583V391ZM76.8391 385.759V386.486L76.0188 386.697C76.1688 386.931 76.2438 387.194 76.2438 387.484C76.2438 388.047 76.0469 388.486 75.6531 388.802C75.2625 389.114 74.7188 389.27 74.0219 389.27L73.7641 389.256L73.5531 389.233C73.4063 389.345 73.3328 389.47 73.3328 389.608C73.3328 389.814 73.5953 389.917 74.1203 389.917H75.0109C75.5859 389.917 76.0234 390.041 76.3234 390.287C76.6266 390.534 76.7781 390.897 76.7781 391.375C76.7781 391.988 76.5219 392.463 76.0094 392.8C75.5 393.138 74.7672 393.306 73.8109 393.306C73.0797 393.306 72.5203 393.178 72.1328 392.922C71.7484 392.669 71.5563 392.313 71.5563 391.853C71.5563 391.538 71.6547 391.273 71.8516 391.061C72.0484 390.848 72.3375 390.697 72.7188 390.606C72.5719 390.544 72.4438 390.442 72.3344 390.302C72.225 390.158 72.1703 390.006 72.1703 389.847C72.1703 389.647 72.2281 389.481 72.3438 389.35C72.4594 389.216 72.6266 389.084 72.8453 388.956C72.5703 388.837 72.3516 388.647 72.1891 388.384C72.0297 388.122 71.95 387.812 71.95 387.456C71.95 386.884 72.1359 386.442 72.5078 386.13C72.8797 385.817 73.4109 385.661 74.1016 385.661C74.2484 385.661 74.4219 385.675 74.6219 385.703C74.825 385.728 74.9547 385.747 75.0109 385.759H76.8391ZM72.7938 391.741C72.7938 391.938 72.8875 392.092 73.075 392.205C73.2656 392.317 73.5313 392.373 73.8719 392.373C74.3844 392.373 74.7859 392.303 75.0766 392.163C75.3672 392.022 75.5125 391.83 75.5125 391.586C75.5125 391.389 75.4266 391.253 75.2547 391.178C75.0828 391.103 74.8172 391.066 74.4578 391.066H73.7172C73.4547 391.066 73.2344 391.127 73.0563 391.248C72.8813 391.373 72.7938 391.538 72.7938 391.741ZM73.3141 387.475C73.3141 387.759 73.3781 387.984 73.5063 388.15C73.6375 388.316 73.8359 388.398 74.1016 388.398C74.3703 388.398 74.5672 388.316 74.6922 388.15C74.8172 387.984 74.8797 387.759 74.8797 387.475C74.8797 386.844 74.6203 386.528 74.1016 386.528C73.5766 386.528 73.3141 386.844 73.3141 387.475ZM84.3578 389.097C84.3578 389.716 84.1344 390.203 83.6875 390.559C83.2438 390.916 82.625 391.094 81.8313 391.094C81.1 391.094 80.4531 390.956 79.8906 390.681V389.331C80.3531 389.537 80.7438 389.683 81.0625 389.767C81.3844 389.852 81.6781 389.894 81.9438 389.894C82.2625 389.894 82.5063 389.833 82.675 389.711C82.8469 389.589 82.9328 389.408 82.9328 389.167C82.9328 389.033 82.8953 388.914 82.8203 388.811C82.7453 388.705 82.6344 388.603 82.4875 388.506C82.3438 388.409 82.0484 388.255 81.6016 388.042C81.1828 387.845 80.8688 387.656 80.6594 387.475C80.45 387.294 80.2828 387.083 80.1578 386.842C80.0328 386.602 79.9703 386.32 79.9703 385.998C79.9703 385.392 80.175 384.916 80.5844 384.569C80.9969 384.222 81.5656 384.048 82.2906 384.048C82.6469 384.048 82.9859 384.091 83.3078 384.175C83.6328 384.259 83.9719 384.378 84.325 384.531L83.8563 385.661C83.4906 385.511 83.1875 385.406 82.9469 385.347C82.7094 385.287 82.475 385.258 82.2438 385.258C81.9688 385.258 81.7578 385.322 81.6109 385.45C81.4641 385.578 81.3906 385.745 81.3906 385.952C81.3906 386.08 81.4203 386.192 81.4797 386.289C81.5391 386.383 81.6328 386.475 81.7609 386.566C81.8922 386.653 82.2 386.812 82.6844 387.044C83.325 387.35 83.7641 387.658 84.0016 387.967C84.2391 388.273 84.3578 388.65 84.3578 389.097ZM87.6578 386.678C87.3547 386.678 87.1172 386.775 86.9453 386.969C86.7734 387.159 86.675 387.431 86.65 387.784H88.6563C88.65 387.431 88.5578 387.159 88.3797 386.969C88.2016 386.775 87.9609 386.678 87.6578 386.678ZM87.8594 391.094C87.0156 391.094 86.3563 390.861 85.8813 390.395C85.4063 389.93 85.1688 389.27 85.1688 388.417C85.1688 387.539 85.3875 386.861 85.825 386.383C86.2656 385.902 86.8734 385.661 87.6484 385.661C88.3891 385.661 88.9656 385.872 89.3781 386.294C89.7906 386.716 89.9969 387.298 89.9969 388.042V388.736H86.6172C86.6328 389.142 86.7531 389.459 86.9781 389.687C87.2031 389.916 87.5188 390.03 87.925 390.03C88.2406 390.03 88.5391 389.997 88.8203 389.931C89.1016 389.866 89.3953 389.761 89.7016 389.617V390.723C89.4516 390.848 89.1844 390.941 88.9 391C88.6156 391.063 88.2688 391.094 87.8594 391.094ZM93.2875 391.094C91.6563 391.094 90.8406 390.198 90.8406 388.408C90.8406 387.517 91.0625 386.837 91.5063 386.369C91.95 385.897 92.5859 385.661 93.4141 385.661C94.0203 385.661 94.5641 385.78 95.0453 386.017L94.6234 387.123C94.3984 387.033 94.1891 386.959 93.9953 386.903C93.8016 386.844 93.6078 386.814 93.4141 386.814C92.6703 386.814 92.2984 387.342 92.2984 388.398C92.2984 389.423 92.6703 389.936 93.4141 389.936C93.6891 389.936 93.9438 389.9 94.1781 389.828C94.4125 389.753 94.6469 389.637 94.8813 389.481V390.705C94.65 390.852 94.4156 390.953 94.1781 391.009C93.9438 391.066 93.6469 391.094 93.2875 391.094ZM98.3078 389.955C98.5578 389.955 98.8578 389.9 99.2078 389.791V390.855C98.8516 391.014 98.4141 391.094 97.8953 391.094C97.3234 391.094 96.9063 390.95 96.6438 390.662C96.3844 390.372 96.2547 389.937 96.2547 389.359V386.833H95.5703V386.228L96.3578 385.75L96.7703 384.644H97.6844V385.759H99.1516V386.833H97.6844V389.359C97.6844 389.562 97.7406 389.712 97.8531 389.809C97.9688 389.906 98.1203 389.955 98.3078 389.955ZM100.211 384.405C100.211 383.939 100.47 383.706 100.989 383.706C101.508 383.706 101.767 383.939 101.767 384.405C101.767 384.627 101.702 384.8 101.57 384.925C101.442 385.047 101.248 385.108 100.989 385.108C100.47 385.108 100.211 384.873 100.211 384.405ZM101.702 391H100.272V385.759H101.702V391ZM104.345 388.37C104.345 388.889 104.43 389.281 104.598 389.547C104.77 389.812 105.048 389.945 105.433 389.945C105.814 389.945 106.088 389.814 106.253 389.552C106.422 389.286 106.506 388.892 106.506 388.37C106.506 387.852 106.422 387.462 106.253 387.203C106.084 386.944 105.808 386.814 105.423 386.814C105.042 386.814 104.767 386.944 104.598 387.203C104.43 387.459 104.345 387.848 104.345 388.37ZM107.969 388.37C107.969 389.223 107.744 389.891 107.294 390.372C106.844 390.853 106.217 391.094 105.414 391.094C104.911 391.094 104.467 390.984 104.083 390.766C103.698 390.544 103.403 390.227 103.197 389.814C102.991 389.402 102.888 388.92 102.888 388.37C102.888 387.514 103.111 386.848 103.558 386.373C104.005 385.898 104.633 385.661 105.442 385.661C105.945 385.661 106.389 385.77 106.773 385.989C107.158 386.208 107.453 386.522 107.659 386.931C107.866 387.341 107.969 387.82 107.969 388.37ZM113.988 391H112.558V387.939C112.558 387.561 112.491 387.278 112.356 387.091C112.222 386.9 112.008 386.805 111.714 386.805C111.314 386.805 111.025 386.939 110.847 387.208C110.669 387.473 110.58 387.916 110.58 388.534V391H109.15V385.759H110.242L110.434 386.43H110.514C110.673 386.177 110.892 385.986 111.17 385.858C111.452 385.727 111.77 385.661 112.127 385.661C112.736 385.661 113.198 385.827 113.514 386.158C113.83 386.486 113.988 386.961 113.988 387.583V391ZM118.066 384.147H120.198C121.17 384.147 121.875 384.286 122.313 384.564C122.753 384.839 122.973 385.278 122.973 385.881C122.973 386.291 122.877 386.627 122.683 386.889C122.492 387.152 122.238 387.309 121.919 387.362V387.409C122.353 387.506 122.666 387.687 122.856 387.953C123.05 388.219 123.147 388.572 123.147 389.012C123.147 389.637 122.92 390.125 122.467 390.475C122.017 390.825 121.405 391 120.63 391H118.066V384.147ZM119.519 386.861H120.363C120.756 386.861 121.041 386.8 121.216 386.678C121.394 386.556 121.483 386.355 121.483 386.073C121.483 385.811 121.386 385.623 121.192 385.511C121.002 385.395 120.698 385.337 120.283 385.337H119.519V386.861ZM119.519 388.014V389.8H120.466C120.866 389.8 121.161 389.723 121.352 389.57C121.542 389.417 121.638 389.183 121.638 388.867C121.638 388.298 121.231 388.014 120.419 388.014H119.519Z" fill="#4A4A4A"/>
<path d="M40 391.961H123.653V392.439H40V391.961Z" fill="#4A4A4A"/>
</g>
<g id="Group 54">
<path id="Fill 1_2" fill-rule="evenodd" clip-rule="evenodd" d="M79.0225 259.32C59.7443 259.32 44.0606 275.004 44.0606 294.282C44.0606 313.56 59.7443 329.244 79.0225 329.244C98.3006 329.244 113.984 313.56 113.984 294.282C113.984 275.004 98.3006 259.32 79.0225 259.32ZM79.0225 330.174C59.2308 330.174 43.1304 314.073 43.1304 294.282C43.1304 274.492 59.2308 258.39 79.0225 258.39C98.8141 258.39 114.915 274.492 114.915 294.282C114.915 314.073 98.8141 330.174 79.0225 330.174Z" fill="#9E9E9E"/>
<path id="Fill 3" fill-rule="evenodd" clip-rule="evenodd" d="M79.0225 251.88C55.6421 251.88 36.6207 270.902 36.6207 294.284C36.6207 317.663 55.6421 336.686 79.0225 336.686C102.403 336.686 121.424 317.663 121.424 294.284C121.424 270.902 102.403 251.88 79.0225 251.88ZM79.0225 337.616C55.1286 337.616 35.6904 318.176 35.6904 294.284C35.6904 270.39 55.1286 250.95 79.0225 250.95C102.916 250.95 122.355 270.39 122.355 294.284C122.355 318.176 102.916 337.616 79.0225 337.616Z" fill="#9E9E9E"/>
<g id="Group 7">
<mask id="mask2_2_8383" style="mask-type:alpha" maskUnits="userSpaceOnUse" x="0" y="215" width="159" height="159">
<path id="Clip 6" fill-rule="evenodd" clip-rule="evenodd" d="M0 215.261H158.046V373.305H0V215.261Z" fill="white"/>
</mask>
<g mask="url(#mask2_2_8383)">
<path id="Fill 5" fill-rule="evenodd" clip-rule="evenodd" d="M79.0225 216.191C35.9621 216.191 0.9295 251.224 0.9295 294.284C0.9295 337.344 35.9621 372.375 79.0225 372.375C122.083 372.375 157.116 337.344 157.116 294.284C157.116 251.224 122.083 216.191 79.0225 216.191ZM79.0225 373.305C35.4504 373.305 -0.000732422 337.856 -0.000732422 294.284C-0.000732422 250.71 35.4504 215.261 79.0225 215.261C122.596 215.261 158.046 250.71 158.046 294.284C158.046 337.856 122.596 373.305 79.0225 373.305Z" fill="#9E9E9E"/>
</g>
</g>
<path id="Fill 8_2" fill-rule="evenodd" clip-rule="evenodd" d="M79.0225 221.61C38.95 221.61 6.35089 254.211 6.35089 294.283C6.35089 334.354 38.95 366.955 79.0225 366.955C119.095 366.955 151.696 334.354 151.696 294.283C151.696 254.211 119.095 221.61 79.0225 221.61ZM79.0225 367.885C38.4383 367.885 5.42065 334.866 5.42065 294.283C5.42065 253.697 38.4383 220.68 79.0225 220.68C119.607 220.68 152.626 253.697 152.626 294.283C152.626 334.866 119.607 367.885 79.0225 367.885Z" fill="#9E9E9E"/>
<path id="Fill 10_2" fill-rule="evenodd" clip-rule="evenodd" d="M79.0225 223.519C71.8356 223.519 65.9863 229.367 65.9863 236.554C65.9863 243.742 71.8356 249.59 79.0225 249.59C86.2095 249.59 92.0588 243.742 92.0588 236.554C92.0588 229.367 86.2095 223.519 79.0225 223.519ZM79.0225 250.52C71.3202 250.52 65.056 244.256 65.056 236.554C65.056 228.853 71.3202 222.589 79.0225 222.589C86.7249 222.589 92.9891 228.853 92.9891 236.554C92.9891 244.256 86.7249 250.52 79.0225 250.52Z" fill="#9E9E9E"/>
<path id="Fill 12_2" fill-rule="evenodd" clip-rule="evenodd" d="M119.844 240.426C116.361 240.426 113.087 241.782 110.625 244.244C108.164 246.705 106.806 249.98 106.806 253.462C106.806 256.943 108.164 260.218 110.625 262.679C113.087 265.141 116.361 266.497 119.844 266.497C123.325 266.497 126.599 265.141 129.06 262.679C131.522 260.218 132.878 256.943 132.878 253.462C132.878 249.98 131.522 246.705 129.06 244.244C126.599 241.782 123.325 240.426 119.844 240.426ZM119.842 267.422C116.266 267.422 112.69 266.06 109.967 263.336C107.328 260.7 105.875 257.193 105.875 253.462C105.875 249.73 107.328 246.225 109.967 243.587C115.416 238.14 124.274 238.143 129.719 243.587C132.357 246.225 133.808 249.73 133.808 253.462C133.808 257.193 132.357 260.7 129.719 263.336C126.995 266.06 123.42 267.422 119.842 267.422Z" fill="#9E9E9E"/>
<path id="Fill 14" fill-rule="evenodd" clip-rule="evenodd" d="M136.751 281.247C129.564 281.247 123.715 287.094 123.715 294.283C123.715 301.47 129.564 307.317 136.751 307.317C143.938 307.317 149.786 301.47 149.786 294.283C149.786 287.094 143.938 281.247 136.751 281.247ZM136.751 308.248C129.049 308.248 122.785 301.983 122.785 294.283C122.785 286.582 129.049 280.316 136.751 280.316C144.452 280.316 150.716 286.582 150.716 294.283C150.716 301.983 144.452 308.248 136.751 308.248Z" fill="#9E9E9E"/>
<path id="Fill 16" fill-rule="evenodd" clip-rule="evenodd" d="M119.844 322.068C116.361 322.068 113.087 323.424 110.625 325.885C108.164 328.347 106.806 331.621 106.806 335.102C106.806 338.585 108.164 341.859 110.625 344.321C113.087 346.782 116.361 348.138 119.844 348.138C123.325 348.138 126.599 346.782 129.06 344.321C131.522 341.859 132.878 338.585 132.878 335.102C132.878 331.621 131.522 328.347 129.06 325.885C126.599 323.424 123.325 322.068 119.844 322.068ZM119.842 349.063C116.266 349.063 112.69 347.701 109.967 344.977C107.328 342.339 105.875 338.834 105.875 335.102C105.875 331.372 107.328 327.865 109.967 325.228C115.412 319.781 124.274 319.783 129.719 325.228C132.357 327.865 133.808 331.372 133.808 335.102C133.808 338.834 132.357 342.339 129.719 344.977C126.995 347.701 123.42 349.063 119.842 349.063Z" fill="#9E9E9E"/>
<path id="Fill 18" fill-rule="evenodd" clip-rule="evenodd" d="M79.0225 338.976C71.8356 338.976 65.9863 344.824 65.9863 352.011C65.9863 359.199 71.8356 365.047 79.0225 365.047C86.2095 365.047 92.0588 359.199 92.0588 352.011C92.0588 344.824 86.2095 338.976 79.0225 338.976ZM79.0225 365.977C71.3202 365.977 65.056 359.713 65.056 352.011C65.056 344.31 71.3202 338.046 79.0225 338.046C86.7249 338.046 92.9891 344.31 92.9891 352.011C92.9891 359.713 86.7249 365.977 79.0225 365.977Z" fill="#9E9E9E"/>
<path id="Fill 20" fill-rule="evenodd" clip-rule="evenodd" d="M38.2032 322.067C34.7204 322.067 31.4479 323.423 28.9846 325.885C26.5232 328.346 25.1669 331.621 25.1669 335.102C25.1669 338.584 26.5232 341.859 28.9846 344.32C31.4479 346.782 34.7204 348.138 38.2032 348.138C41.6841 348.138 44.9586 346.782 47.42 344.32C49.8813 341.859 51.2395 338.584 51.2395 335.102C51.2395 331.621 49.8813 328.346 47.42 325.885C44.9586 323.423 41.6841 322.067 38.2032 322.067ZM38.2032 349.062C34.6274 349.062 31.0497 347.701 28.3279 344.977C25.6897 342.339 24.2367 338.834 24.2367 335.102C24.2367 331.371 25.6897 327.864 28.3279 325.228C33.7734 319.784 42.633 319.782 48.0786 325.228C50.7167 327.864 52.1697 331.371 52.1697 335.102C52.1697 338.834 50.7167 342.339 48.0786 344.977C45.3548 347.701 41.779 349.062 38.2032 349.062Z" fill="#9E9E9E"/>
<path id="Fill 22" fill-rule="evenodd" clip-rule="evenodd" d="M21.2945 281.247C14.1057 281.247 8.25824 287.094 8.25824 294.283C8.25824 301.47 14.1057 307.317 21.2945 307.317C28.4815 307.317 34.3289 301.47 34.3289 294.283C34.3289 287.094 28.4815 281.247 21.2945 281.247ZM21.2945 308.248C13.594 308.248 7.328 301.983 7.328 294.283C7.328 286.582 13.594 280.316 21.2945 280.316C28.995 280.316 35.2592 286.582 35.2592 294.283C35.2592 301.983 28.995 308.248 21.2945 308.248Z" fill="#9E9E9E"/>
<path id="Fill 24" fill-rule="evenodd" clip-rule="evenodd" d="M38.2032 240.426C34.7204 240.426 31.4479 241.782 28.9846 244.244C26.5232 246.705 25.1669 249.98 25.1669 253.462C25.1669 256.943 26.5232 260.218 28.9846 262.679C31.4479 265.141 34.7204 266.497 38.2032 266.497C41.6841 266.497 44.9586 265.141 47.42 262.679C49.8813 260.218 51.2395 256.943 51.2395 253.462C51.2395 249.98 49.8813 246.705 47.42 244.244C44.9586 241.782 41.6841 240.426 38.2032 240.426ZM38.2032 267.422C34.6255 267.422 31.0497 266.06 28.3279 263.336C25.6897 260.7 24.2367 257.193 24.2367 253.462C24.2367 249.73 25.6897 246.225 28.3279 243.587C33.7734 238.142 42.633 238.142 48.0786 243.587C50.7167 246.225 52.1697 249.73 52.1697 253.462C52.1697 257.193 50.7167 260.7 48.0786 263.336C45.3548 266.06 41.779 267.422 38.2032 267.422Z" fill="#9E9E9E"/>
<mask id="mask3_2_8383" style="mask-type:alpha" maskUnits="userSpaceOnUse" x="0" y="215" width="238" height="159">
<path id="Clip 27" fill-rule="evenodd" clip-rule="evenodd" d="M0 373.305H237.23V215.261H0V373.305Z" fill="white"/>
</mask>
<g mask="url(#mask3_2_8383)">
<path id="Fill 26" fill-rule="evenodd" clip-rule="evenodd" d="M224.824 371.776H225.754V216.788H224.824V371.776Z" fill="#4A4A4A"/>
<path id="Fill 28" fill-rule="evenodd" clip-rule="evenodd" d="M223.712 218.642L225.289 217.064L226.865 218.642V217.302L225.289 215.727L223.712 217.302V218.642Z" fill="#4A4A4A"/>
<path id="Fill 29" fill-rule="evenodd" clip-rule="evenodd" d="M223.712 369.923L225.289 371.502L226.865 369.923V371.262L225.289 372.84L223.712 371.262V369.923Z" fill="#4A4A4A"/>
<path id="Fill 30" fill-rule="evenodd" clip-rule="evenodd" d="M179.807 328.647H180.737V259.918H179.807V328.647Z" fill="#4A4A4A"/>
<path id="Fill 31" fill-rule="evenodd" clip-rule="evenodd" d="M178.694 261.771L180.271 260.193L181.847 261.771V260.431L180.271 258.855L178.694 260.431V261.771Z" fill="#4A4A4A"/>
<path id="Fill 32" fill-rule="evenodd" clip-rule="evenodd" d="M178.694 326.794L180.271 328.372L181.847 326.794V328.133L180.271 329.709L178.694 328.133V326.794Z" fill="#4A4A4A"/>
<path id="Fill 33" fill-rule="evenodd" clip-rule="evenodd" d="M179.807 364.448H180.737V339.573H179.807V364.448Z" fill="#4A4A4A"/>
<path id="Fill 34" fill-rule="evenodd" clip-rule="evenodd" d="M178.694 341.427L180.271 339.849L181.847 341.427V340.088L180.271 338.512L178.694 340.088V341.427Z" fill="#4A4A4A"/>
<path id="Fill 35" fill-rule="evenodd" clip-rule="evenodd" d="M178.694 362.595L180.271 364.172L181.847 362.595V363.934L180.271 365.51L178.694 363.934V362.595Z" fill="#4A4A4A"/>
<path id="Fill 36" fill-rule="evenodd" clip-rule="evenodd" d="M79.0177 215.959H80.8782V215.494H79.0177V215.959Z" fill="#4A4A4A"/>
<path id="Fill 37" fill-rule="evenodd" clip-rule="evenodd" d="M84.6437 215.958H88.4111V215.493H84.6437V215.958ZM92.1804 215.958H95.9479V215.493H92.1804V215.958ZM99.7172 215.958H103.485V215.493H99.7172V215.958ZM107.254 215.958H111.021V215.493H107.254V215.958ZM114.791 215.958H118.558V215.493H114.791V215.958ZM122.326 215.958H126.093V215.493H122.326V215.958ZM129.862 215.958H133.628V215.493H129.862V215.958ZM137.397 215.958H141.165V215.493H137.397V215.958ZM144.934 215.958H148.701V215.493H144.934V215.958ZM152.471 215.958H156.238V215.493H152.471V215.958ZM160.006 215.958H163.773V215.493H160.006V215.958ZM167.542 215.958H171.31V215.493H167.542V215.958ZM175.079 215.958H178.846V215.493H175.079V215.958ZM182.616 215.958H186.383V215.493H182.616V215.958ZM190.151 215.958H193.918V215.493H190.151V215.958ZM197.687 215.958H201.455V215.493H197.687V215.958ZM205.224 215.958H208.992V215.493H205.224V215.958ZM212.761 215.958H216.528V215.493H212.761V215.958ZM220.296 215.958H224.063V215.493H220.296V215.958ZM227.831 215.958H231.598V215.493H227.831V215.958Z" fill="#4A4A4A"/>
<path id="Fill 38" fill-rule="evenodd" clip-rule="evenodd" d="M235.369 215.959H237.23V215.494H235.369V215.959Z" fill="#4A4A4A"/>
<path id="Fill 39" fill-rule="evenodd" clip-rule="evenodd" d="M79.0177 373.073H80.8782V372.608H79.0177V373.073Z" fill="#4A4A4A"/>
<path id="Fill 40" fill-rule="evenodd" clip-rule="evenodd" d="M84.6437 373.073H88.4111V372.607H84.6437V373.073ZM92.1804 373.073H95.9479V372.607H92.1804V373.073ZM99.7172 373.073H103.485V372.607H99.7172V373.073ZM107.254 373.073H111.021V372.607H107.254V373.073ZM114.791 373.073H118.558V372.607H114.791V373.073ZM122.326 373.073H126.093V372.607H122.326V373.073ZM129.862 373.073H133.628V372.607H129.862V373.073ZM137.397 373.073H141.165V372.607H137.397V373.073ZM144.934 373.073H148.701V372.607H144.934V373.073ZM152.471 373.073H156.238V372.607H152.471V373.073ZM160.006 373.073H163.773V372.607H160.006V373.073ZM167.542 373.073H171.31V372.607H167.542V373.073ZM175.079 373.073H178.846V372.607H175.079V373.073ZM182.616 373.073H186.383V372.607H182.616V373.073ZM190.151 373.073H193.918V372.607H190.151V373.073ZM197.687 373.073H201.455V372.607H197.687V373.073ZM205.224 373.073H208.992V372.607H205.224V373.073ZM212.761 373.073H216.528V372.607H212.761V373.073ZM220.296 373.073H224.063V372.607H220.296V373.073ZM227.831 373.073H231.598V372.607H227.831V373.073Z" fill="#4A4A4A"/>
<path id="Fill 41" fill-rule="evenodd" clip-rule="evenodd" d="M235.369 373.073H237.23V372.608H235.369V373.073Z" fill="#4A4A4A"/>
<path id="Fill 42" fill-rule="evenodd" clip-rule="evenodd" d="M79.0177 259.088H80.8782V258.622H79.0177V259.088Z" fill="#4A4A4A"/>
<path id="Fill 43" fill-rule="evenodd" clip-rule="evenodd" d="M84.6251 259.088H88.374V258.623H84.6251V259.088ZM92.1209 259.088H95.8698V258.623H92.1209V259.088ZM99.6186 259.088H103.367V258.623H99.6186V259.088ZM107.114 259.088H110.863V258.623H107.114V259.088ZM114.61 259.088H118.359V258.623H114.61V259.088ZM122.106 259.088H125.855V258.623H122.106V259.088ZM129.604 259.088H133.353V258.623H129.604V259.088ZM137.1 259.088H140.848V258.623H137.1V259.088ZM144.595 259.088H148.344V258.623H144.595V259.088ZM152.093 259.088H155.842V258.623H152.093V259.088ZM159.589 259.088H163.338V258.623H159.589V259.088ZM167.085 259.088H170.833V258.623H167.085V259.088ZM174.582 259.088H178.331V258.623H174.582V259.088ZM182.078 259.088H185.827V258.623H182.078V259.088Z" fill="#4A4A4A"/>
<path id="Fill 44" fill-rule="evenodd" clip-rule="evenodd" d="M189.574 259.088H191.434V258.622H189.574V259.088Z" fill="#4A4A4A"/>
<path id="Fill 45" fill-rule="evenodd" clip-rule="evenodd" d="M79.0177 329.942H80.8782V329.477H79.0177V329.942Z" fill="#4A4A4A"/>
<path id="Fill 46" fill-rule="evenodd" clip-rule="evenodd" d="M84.6251 329.942H88.374V329.477H84.6251V329.942ZM92.1209 329.942H95.8698V329.477H92.1209V329.942ZM99.6186 329.942H103.367V329.477H99.6186V329.942ZM107.114 329.942H110.863V329.477H107.114V329.942ZM114.61 329.942H118.359V329.477H114.61V329.942ZM122.106 329.942H125.855V329.477H122.106V329.942ZM129.604 329.942H133.353V329.477H129.604V329.942ZM137.1 329.942H140.848V329.477H137.1V329.942ZM144.595 329.942H148.344V329.477H144.595V329.942ZM152.093 329.942H155.842V329.477H152.093V329.942ZM159.589 329.942H163.338V329.477H159.589V329.942ZM167.085 329.942H170.833V329.477H167.085V329.942ZM174.582 329.942H178.331V329.477H174.582V329.942ZM182.078 329.942H185.827V329.477H182.078V329.942Z" fill="#4A4A4A"/>
<path id="Fill 47" fill-rule="evenodd" clip-rule="evenodd" d="M189.574 329.942H191.434V329.477H189.574V329.942Z" fill="#4A4A4A"/>
<path id="Fill 48" fill-rule="evenodd" clip-rule="evenodd" d="M79.0177 365.745H80.8782V365.28H79.0177V365.745Z" fill="#4A4A4A"/>
<path id="Fill 49" fill-rule="evenodd" clip-rule="evenodd" d="M84.6251 365.744H88.374V365.279H84.6251V365.744ZM92.1209 365.744H95.8698V365.279H92.1209V365.744ZM99.6186 365.744H103.367V365.279H99.6186V365.744ZM107.114 365.744H110.863V365.279H107.114V365.744ZM114.61 365.744H118.359V365.279H114.61V365.744ZM122.106 365.744H125.855V365.279H122.106V365.744ZM129.604 365.744H133.353V365.279H129.604V365.744ZM137.1 365.744H140.848V365.279H137.1V365.744ZM144.595 365.744H148.344V365.279H144.595V365.744ZM152.093 365.744H155.842V365.279H152.093V365.744ZM159.589 365.744H163.338V365.279H159.589V365.744ZM167.085 365.744H170.833V365.279H167.085V365.744ZM174.582 365.744H178.331V365.279H174.582V365.744ZM182.078 365.744H185.827V365.279H182.078V365.744Z" fill="#4A4A4A"/>
<path id="Fill 50" fill-rule="evenodd" clip-rule="evenodd" d="M189.574 365.745H191.434V365.28H189.574V365.745Z" fill="#4A4A4A"/>
<path id="Fill 51" fill-rule="evenodd" clip-rule="evenodd" d="M79.0177 338.744H80.8782V338.279H79.0177V338.744Z" fill="#4A4A4A"/>
<path id="Fill 52" fill-rule="evenodd" clip-rule="evenodd" d="M84.6251 338.743H88.374V338.278H84.6251V338.743ZM92.1209 338.743H95.8698V338.278H92.1209V338.743ZM99.6186 338.743H103.367V338.278H99.6186V338.743ZM107.114 338.743H110.863V338.278H107.114V338.743ZM114.61 338.743H118.359V338.278H114.61V338.743ZM122.106 338.743H125.855V338.278H122.106V338.743ZM129.604 338.743H133.353V338.278H129.604V338.743ZM137.1 338.743H140.848V338.278H137.1V338.743ZM144.595 338.743H148.344V338.278H144.595V338.743ZM152.093 338.743H155.842V338.278H152.093V338.743ZM159.589 338.743H163.338V338.278H159.589V338.743ZM167.085 338.743H170.833V338.278H167.085V338.743ZM174.582 338.743H178.331V338.278H174.582V338.743ZM182.078 338.743H185.827V338.278H182.078V338.743Z" fill="#4A4A4A"/>
<path id="Fill 53" fill-rule="evenodd" clip-rule="evenodd" d="M189.574 338.744H191.434V338.279H189.574V338.744Z" fill="#4A4A4A"/>
</g>
</g>
</g>
</g>
<defs>
<clipPath id="clip0_2_8383">
<rect width="97" height="189" fill="white" transform="translate(22)"/>
</clipPath>
</defs>
</svg>
